<svg width="114" height="106" viewBox="0 0 114 106" fill="none" xmlns="http://www.w3.org/2000/svg">
<path d="M56.8344 51C53.8032 50.7664 51.3783 49.3973 49.7965 46.6031C48.8256 44.8883 47.7126 43.2482 46.6753 41.5661C43.9994 37.23 41.333 32.8845 38.6523 28.5484C36.2274 24.6282 33.7836 20.7126 31.354 16.7923C30.9561 16.1475 30.563 15.5027 30.1652 14.8579C29.881 14.4 29.9568 14.0962 30.4446 13.7879C32.9453 12.2132 35.5881 10.9096 38.3208 9.78816C41.0346 8.67143 43.8431 7.85373 46.7132 7.26499C48.5887 6.88184 48.2856 6.67158 48.6077 8.40042C48.9724 10.3582 49.266 12.33 49.5975 14.2925C50.0569 17.0259 50.5211 19.7547 50.9758 22.4881C51.222 23.974 51.4967 25.4552 51.6862 26.9504C52.0177 29.5437 53.9453 31.4828 56.4507 31.665C59.264 31.8706 61.4473 30.3988 62.0725 27.6747C62.5556 25.572 62.8398 23.4226 63.1997 21.292C63.5549 19.208 63.9054 17.1287 64.2559 15.0448C64.6063 12.9375 64.9947 10.8348 65.2836 8.71815C65.511 7.05473 65.7241 6.88184 67.3959 7.26499C70.7349 8.03129 74.0076 8.9985 77.1382 10.3862C79.3641 11.3768 81.5238 12.4842 83.5793 13.7972C84.1382 14.157 84.0671 14.4841 83.7877 14.9326C82.1206 17.6053 80.4535 20.2734 78.8005 22.9554C75.5042 28.2868 72.2173 33.6275 68.921 38.9635C67.2018 41.7437 65.5204 44.5425 63.7349 47.2807C62.172 49.673 59.8702 50.8738 56.8391 50.9953L56.8344 51Z" fill="#19D16F"/>
<path d="M11.788 53.0014C16.545 53.1128 21.2972 53.2567 26.0541 53.3774C30.927 53.5027 35.8044 53.6326 40.6772 53.7625C42.657 53.8136 44.6367 53.8368 46.6164 53.911C50.2189 54.0364 53.4041 56.9508 53.9233 60.5568C54.2942 63.1324 53.2603 65.2115 52.092 67.3185C50.2421 70.6506 48.4246 74.006 46.5932 77.352C44.6831 80.8466 42.7636 84.3365 40.8627 87.8311C39.7082 89.952 38.5723 92.0821 37.4271 94.2077C36.639 95.6695 35.8276 97.1268 35.0533 98.5979C34.8122 99.0574 34.5387 99.0898 34.1168 98.8624C30.3845 96.8483 26.935 94.4397 23.8101 91.567C22.4424 90.3047 21.135 88.9913 19.9341 87.5666C19.4937 87.0468 19.6142 86.7405 20.0593 86.3739C22.0947 84.7078 24.1208 83.0325 26.1515 81.3617C29.2254 78.8325 32.3411 76.3543 35.3593 73.7647C38.5538 71.0219 37.1675 66.3996 33.7088 65.0306C32.3781 64.5015 30.9548 64.65 29.7076 65.3322C28.6134 65.9309 27.4126 66.1026 26.2813 66.5388C23.94 67.4438 21.58 68.2884 19.2294 69.1748C16.7814 70.0984 14.338 71.0405 11.89 71.964C11.0601 72.2749 10.9164 72.21 10.6382 71.3607C9.76195 68.6968 9.00623 66.0005 8.62141 63.216C8.21341 60.2226 7.91204 57.22 8.02332 54.1895C8.06968 52.9922 8.05577 52.9922 9.25195 53.0014C10.0958 53.0061 10.9442 53.0014 11.788 53.0014Z" fill="#19D16F"/>
<path d="M105.997 56.1624C106.034 58.4647 105.724 60.7392 105.459 63.0184C105.126 65.9381 104.204 68.6953 103.361 71.4804C103.175 72.0978 102.874 72.2928 102.244 72.0514C99.9041 71.1555 97.5503 70.2968 95.2058 69.4148C91.3694 67.9759 87.5422 66.5044 83.6872 65.1118C81.5188 64.3274 79.216 64.9958 77.9511 66.8479C76.6769 68.7186 76.3572 70.7703 77.8028 72.9566C78.4607 73.9546 79.5125 74.5812 80.416 75.3332C83.9745 78.2993 87.5422 81.2469 91.1145 84.1944C92.0088 84.9325 92.9169 85.6473 93.8204 86.3715C94.5618 86.9656 94.5849 87.0353 93.9826 87.7362C92.2821 89.7229 90.4103 91.5332 88.3994 93.1996C86.319 94.9264 84.1366 96.5093 81.7736 97.8415C81.1666 98.185 80.5504 98.5145 79.9434 98.8627C79.5264 99.0994 79.2623 99.0437 79.0168 98.5888C76.9039 94.6572 74.7772 90.7302 72.6412 86.8124C69.7175 81.4511 66.7568 76.1084 63.8563 70.7331C62.7999 68.7789 61.5257 66.9314 60.6593 64.903C59.7048 62.6749 59.7789 60.3447 60.9326 58.1073C62.0678 55.9117 63.9026 54.6306 66.2286 54.0782C67.197 53.8461 68.2441 53.9018 69.2542 53.8786C74.5131 53.7533 79.7766 53.6976 85.0355 53.5119C88.6774 53.3866 92.3238 53.4469 95.9657 53.2427C98.9774 53.0709 101.998 53.1545 105.01 53.0106C105.937 52.9642 105.978 53.0338 105.992 53.9854C106.002 54.7095 105.992 55.4383 105.992 56.1624H105.997Z" fill="#19D16F"/>
</svg>
