<?xml version="1.0" encoding="UTF-8"?>
<svg id="uuid-99d1689c-5f18-457d-bca3-f23092a5dffc" data-name="uuid-af9d7075-c2c0-44fe-a42a-0688b7f4d268" xmlns="http://www.w3.org/2000/svg" viewBox="0 0 215.94 235">
  <defs>
    <style>
      .uuid-0f094053-44cf-4567-bae5-34ea91d8af95 {
        fill: #f9db7b;
      }

      .uuid-542a7644-c09a-4fc2-aa08-50850625efc1 {
        fill: #fdc417;
      }

      .uuid-f0995c3e-2bc5-4abc-88ea-c707d0212998 {
        fill: #fdd042;
      }

      .uuid-15feb99b-daed-4272-bc73-180c85e5bfbd {
        fill: #e59912;
      }

      .uuid-f5f0d29c-3e8e-4d00-8226-d1f28900b09c {
        fill: #fbeab2;
      }

      .uuid-766016df-6c5a-4e75-afbd-a6d746a522e6 {
        fill: #fdf6da;
      }

      .uuid-dc5f559c-8004-4a44-ae82-b60b7bf12acf {
        fill: #81163e;
      }

      .uuid-f2dbb76a-dfa2-427b-a24e-61c720bbe548 {
        fill: #b54202;
      }

      .uuid-8c3b0d1e-8e93-4341-982c-460a86a8535e {
        fill: #d96e01;
      }

      .uuid-83d86819-645b-4682-ac21-84f781884288 {
        fill: #cb6503;
      }

      .uuid-8c86a872-19e5-4360-99f3-3901fc5def92 {
        fill: #dcad83;
      }
    </style>
  </defs>
  <path class="uuid-dc5f559c-8004-4a44-ae82-b60b7bf12acf" d="M170.98,22.34c1.52,1.32,3.31,1.99,5.3,2.18,3.24,2.52,5.56,6,8.91,8.44,2.46,1.79,4.22,4.17,5.24,7.18,1.07,3.18,2.84,6.01,5.95,7.71,.5,.64,1.01,1.27,1.51,1.91,1.56,2.69,3,5.41,2.94,8.68-.01,.69,.45,1.71,1.01,2.03,4.63,2.71,4.94,8.03,7.4,12.03,1.13,1.84,1.4,3.97,1.38,6.14-.04,3.69,.01,7.38,0,11.07,0,1.85,.22,3.69,1.68,4.92,2.98,2.49,3.57,5.87,3.6,9.37,.08,11.18,.02,22.36,.04,33.53,0,2.93-.79,5.58-3.03,7.52-1.9,1.64-2.25,3.65-2.3,5.98-.08,3.86,1.07,8.1-1.43,11.42-2.79,3.72-3.38,8.66-7.09,11.84-1.19,1.02-2.04,2.59-2.02,4.45,.06,4.78-2.46,8.24-6.03,11.03-1.54,1.2-2.71,2.5-3.38,4.41-2.46,7.1-7.47,12.09-14.13,15.12-3.21,1.46-6.2,2.83-8.56,5.52-2.63,2.99-5.71,5.33-9.89,5.76-.75,.08-1.71,.33-2.14,.85-2.88,3.54-7.62,3.96-11.01,6.71-2.62,2.12-5.97,2.18-9.27,2-4.3-.24-8.53-.26-11.56,3.7-.87,1.14-2.4,1.07-3.75,1.08-7.71,.02-15.42-.01-23.14,.05-2.72,.02-5.18-.94-7.12-2.56-2.37-1.98-4.92-2.53-7.78-2.27-8.56,.77-15.32-3.48-22.04-7.85-.83-.54-1.7-1.23-2.62-1.4-5.66-1-9.47-4.76-13.13-8.7-.98-1.06-2.11-1.56-3.38-2.02-4.38-1.6-8.01-3.98-10.88-7.93-2.49-3.42-5.13-6.6-6.63-10.66-.81-2.19-2.86-3.69-4.78-5.05-1.14-.81-2.22-1.75-2.49-3.05-1.11-5.26-4.4-9.69-5.53-14.91-.36-1.7-1.44-2.78-2.64-3.74-2.59-2.08-3.51-4.77-3.38-7.99,.08-2.01-.01-4.02-.02-6.03,0-1.62-.3-3.23-1.54-4.3C.43,144.06,0,140.85,.01,137.41c.03-11.29,.06-22.58-.01-33.87-.02-2.93,.51-5.46,2.82-7.54,1.81-1.63,2.57-3.85,2.51-6.35-.06-2.9,.12-5.82-.04-8.72-.21-3.88,.44-7.34,3.71-9.89,.5-.39,1.02-1.03,1.12-1.63,.95-5.5,5.38-9.8,5.37-15.65,0-1.91,1.24-3.24,2.98-3.62,2.67-.59,3.84-2.32,4.65-4.7,2.75-8.11,8.31-14.2,14.94-19.16,2.82-2.11,6.62-2.99,9.6-5.15,.53-.39,1.35-.48,1.74-.95,4.72-5.69,11.51-7.57,18.05-9.92,.42-.15,.95-.28,1.18-.6,3.45-4.78,8.53-4.12,13.43-4.07,2.12,.02,4.25-.09,6.37,.02,2.96,.15,5.52-.5,7.49-2.89,.8-.96,1.89-1.73,3.12-1.86,7.64-.81,15.43-2.25,22.37,2.52,2.46,1.69,4.93,2.38,7.83,2.24,2.68-.13,5.37,.07,8.05-.05,3.31-.15,6.18,.64,8.45,3.2,.5,.56,1.21,1.24,1.89,1.31,4.93,.55,8.5,4.38,13.23,5.38,1.56,.33,2.27,1.66,3.26,2.72,.95,1.02,1.49,2.97,3.59,2.21,.43,.2,.86,.39,1.28,.59,.24,1.06,.97,1.41,1.97,1.38Zm-109.3-1.08c-1.85,0-3.7,.08-5.54,0-1.74-.08-1.96,.89-1.83,2.24-1.16,1.52-3.85,.43-4.58,2.69-.11,1.14,.05,2.33-.74,3.32l-.13-.02c-.44,.02-.9,0-1.33,.07-3.21,.51-7.62-1.9-8.8,3.59-3.97,.18-4.47,4.24-6.81,5.99-2.18,1.64-2.71,3.1-2.71,5.42,0,1.9,.71,4.1-1.6,5.34-.7,.03-1.4,.06-2.1,.09-1.59-1.28-1.8,.43-2.35,1.16-.37,.49-.37,1.7-.66,1.74-3.61,.55-2.68,3.32-2.59,5.45,.11,2.56-.41,4.36-3.25,4.85-.95,.17-2.07,.45-1.78,1.9-.1,2.63-.2,5.27-.3,7.9q-4.6,.56-4.6,5.26c0,5.42-.02,10.85,.01,16.27,.01,1.9-.47,3.28-2.67,3.41-.67,.04-1.33,.22-1.46,1.06-.74,.82-.71,1.83-.71,2.83,.02,6.55,.05,13.1,.07,19.65-.81,.58-.26,1.25-.11,1.89-.17,.07-.31,.17-.43,.3-2.14-.1-1.87,1.5-1.89,2.78-.05,3.9-.03,7.8-.02,11.71,.02,5.48,.52,5.91,6.02,5.25l.21,.18c-.54,5.1-.18,10.21-.18,15.31,0,4.1,.94,4.84,5.34,4.67,.1,2,.11,4.02,.32,6.01,.15,1.38,.72,2.74,2.39,2.77,2.28,.03,2.73,1.38,2.84,3.26,.1,1.67,.39,3.32,.6,4.98-.21,.06-.41,.13-.62,.19,1.38,2.96,2.93,6.27,5.91,7.38,2.92,1.09,3.56,2.63,3.19,5.12-.63,4.24,3,5.78,5.09,8.29,.45,.54,1.24,.24,1.73-.34,.65,.04,1.31,.08,1.96,.11,.32,1.25,.51,2.55,1.01,3.72,.39,.91,.6,2.6,2.39,1.5,1.74,.08,3.49,.22,5.23,.24,1.43,.01,2.64,.22,2.92,1.91-.76,.84-.32,1.16,.56,1.28,.07,.22,.15,.45,.22,.67,.53,2.35,1.9,4.51,3.59,5.81,3.12,2.42,7.3,2.76,10.95,4.19,.85,.22,1.72,.64,2.56,.61,3.16-.13,6,0,6.43,4.15,.07,.65,1,.77,1.68,.8,.65,1.46,1.99,1.22,3.18,1.22,5.33,0,10.7-.38,15.75,1.89,.42,.28,.85,.55,1.27,.83-.16,2.1,1,2.64,2.87,2.68,4.97,.12,9.95,.67,14.89,.43,3.39-.16,7.33,.7,9.97-2.47,2.23-2.67,5.09-3.35,8.32-3.35,2.67,0,5.34,.04,8.01-.04,1.02-.03,2.38,.31,2.53-1.4l.19-.16c4.38-3.47,9.96-4.25,14.86-6.55,1.68-.79,3.78-.75,3.97-3.25l.68-.2c1.04,.13,1.84-.43,2.19-1.24,1.74-4.09,5.42-5.34,9.19-6.53,1.13-.36,2.49-.53,2.6-2.16l.08-.1c2.3-.69,1.33-2.49,1.34-3.95,.93-.22,1.86-.45,2.8-.67,3.49,.96,3.67-2.43,5.24-3.99,.46-.29,.92-.59,1.37-.88,1.71-3.53,3.41-7.05,5.12-10.58,.11-.89,.23-1.77,.34-2.66,2.22,.09,4.79,.85,5.06-2.71,.77-3.29-1.18-7.55,3.41-9.52,.29-.12,.28-1.03,.34-1.58,.21-1.88,.39-3.76,.58-5.65,6.25-.97,6.49-1.23,6.64-7.48,.05-2,.09-4,0-6-.12-2.7,.5-5.03,2.66-6.85,1.43-1.21,2.07-2.84,2.06-4.73-.02-4.55-.05-9.11,.02-13.66,.02-1.46-.33-2.37-1.94-2.39,.08-7.14,.14-14.28,.24-21.43,.02-1.55-.69-2.59-2.08-3.09-1.94-.71-2.25-2.16-2.22-4,.07-5.7,.07-11.39,0-17.09-.01-1.09,.61-2.57-1.13-3.09-1.41-.17-2.82-.34-4.23-.51,.07-.45-.17-.7-.57-.82-.02-1.63-.21-3.27-.03-4.88,.29-2.63-.85-3.6-3.33-3.36-.17-.24-.34-.47-.51-.71,.07-1.2,.19-2.41,.2-3.61q.07-6.13-5.75-6.91c.07-2.16-.5-3.66-3.12-3.07-.93-1.38-.86-2.94-.84-4.5,.03-2.66,.56-5.55-3.48-5.96-3.09-.31-1.07-5.57-4.92-5.35-.33,.02-.69-.03-.98-.18-.38-.19-.95-.46-1.02-.78-.88-4.27-4.21-3.46-7.15-3.56-1.24-.04-3.4,.43-3.27-1.31,.26-3.57-2.12-4.13-4.5-4.98-.07-.66-.13-1.32-.2-1.98-.35-1.33-1.18-1.06-2.05-.61-2.17-.07-4.33-.13-6.5-.2-.15-1.16-.29-2.32-.45-3.48-.16-1.12-.37-2.21-1.96-1.72-2.68-.18-5.35-.35-8.03-.53,.15-.86,.04-1.66-.61-2.31-.58-1.73-2.06-1.45-3.36-1.45-6.59,0-13.17,.02-19.76,.04-.22-1.09-.89-1.73-1.97-1.95,.31-2.58-.78-3.67-3.42-3.59-4.13,.12-8.26,.04-12.39,.03-1.55,0-3.1,.15-3.06,2.17,.06,3.07-1.83,3.34-4.18,3.32-5.92-.05-11.83-.04-17.75-.01-1.07,0-2.79-.33-2.94,.91-.52,4.27-3.64,3.18-6.03,3.03-3.38-.22-4.52,1.14-3.94,4.3-.73,.53-2.02,.56-1.75,1.98Z"/>
  <path class="uuid-83d86819-645b-4682-ac21-84f781884288" d="M161.64,215.84c-.23,.07-.45,.13-.68,.2-1.32,0-2.65,.03-3.97-.03-1.97-.08-3.98,.13-4.84,2.1-.98,2.27-2.59,2.61-4.75,2.6-5.1-.03-5.1,.04-5.28,5.12,0,0-.19,.16-.19,.16-5,.03-10.01,.05-15.02,.1-1.56,.02-3.38-.08-3.97,1.74-.74,2.3-2.41,2.26-4.24,2.26-7.79,0-15.58,.02-23.37,.04-.42-.28-.85-.55-1.28-.83,.11-2.57-1.53-3.21-3.65-3.2-5.1,0-10.19,.06-15.29,.09-.68-.04-1.61-.15-1.68-.8-.43-4.14-3.27-4.27-6.43-4.15-.84,.03-1.71-.39-2.56-.61-.91-3.37-2.97-5.03-6.59-4.64-2.11,.23-3.66-.52-4.17-2.86-.43-1.97-1.93-2.56-3.78-2.5-.07-.22-.15-.45-.22-.67-.19-.43-.37-.86-.56-1.28-.28-1.7-1.5-1.9-2.92-1.91-1.74-.02-3.49-.15-5.23-.24-1.46-1.53-.01-4.95-3.4-5.22-.65-.04-1.31-.08-1.97-.11-.76-1.19-1.27-3.08-2.32-3.45-3.3-1.15-3.13-3.6-3.01-6.18,.12-2.4-.62-4.1-3.27-4.56-1.11-.19-2.45-.7-2.49-1.89-.08-2.89-2.42-3.42-4.22-4.55-.21-1.66-.5-3.32-.6-4.98-.11-1.88-.56-3.23-2.84-3.26-1.67-.02-2.24-1.38-2.39-2.77-.21-1.99-.22-4-.32-6.01-3.58-1.61-3.49-4.71-3.35-7.94,.13-2.86,.04-5.74,.02-8.6,0-1.45,.03-2.96-1.83-3.44,0,0-.21-.18-.21-.18-3.73-1.17-3.29-4.2-3.38-7.17-.12-4.19,.79-8.46-.74-12.57,.12-.13,.27-.24,.43-.3,4.36,.78,5.04,3.72,4.71,7.54-.25,2.86-.08,5.76-.03,8.64,.02,1.16-.24,2.55,1.45,2.93,.17,.14,.36,.25,.56,.33,.62,1.02,1.71,.91,2.67,1.11,.03,1.91,.07,3.83,.1,5.74-.53,.94-.61,1.76,.59,2.24l.11,.11c3.81,1.38,4.81,4.32,4.47,8.02-.02,.17,.23,.35,.36,.53,.15,.52,.3,1.03,.45,1.55,.64,1.29,1.82,1.07,2.93,1.05,0,0-.02-.01-.02-.01,.02,1.09-.43,2.36,1.15,2.81,.69,.25,1.39,.48,2.13,.2,1.81,1.2,2.36,2.84,2.22,5.01-.13,1.93-.6,4.18,1.41,5.55,2.91,1.97,3.13,6.87,7.73,7.03,.27,0,.64,.89,.76,1.41,.62,2.89,2.55,3.67,5.21,3.39,2.2-.23,4.19,.09,5.37,2.28,.03,.18,.11,.34,.25,.46,.57,1.52,1.73,1.15,2.86,.9,.06,.11,.15,.19,.26,.26-.6,5.38,.65,6.37,6.33,4.98,.57,0,1.14,0,1.71,0,.34,1.65,.91,3.11,2.9,3.31,.1,.12,.23,.2,.39,.22,2.65,1.93,5.66,.74,8.5,.96,.14,1.29,.28,2.57,.42,3.86-.23,.36-.29,.75,.1,.99,.13,.08,.45-.17,.68-.26,5.36,.07,10.71,.14,16.07,.2,1.27,.78,2.7,1.18,3.24,2.99,.52,1.75,2.18,2.36,4.03,2.35,7.69-.03,15.38-.02,23.07-.03,1.69,0,3.24-.48,3.68-2.25,.58-2.33,2.2-2.45,4.09-2.43,4.01,.03,8.03,.04,12.04-.04,1.94-.04,1.93-.13,2.26-1.95l.22-2.58c1.99-.83,4.09-.77,6.18-.81,1.34-.03,3.18,0,3.6-1.19,1.23-3.49,3.99-2.67,6.5-2.9,1.29-.12,3.33,.65,3.24-1.93,.02-.34,.05-.68,.07-1.02,.09-2.51,3.93-1.85,3.83-4.52,.09-.37,.17-.75,.26-1.12,1.89-.86,3.91-.77,5.9-.76,2.5,0,4.39-.84,4.86-3.53,.24-1.34,1.25-1.52,2.22-2.09,3.47-2.03,4.92-6.19,8.4-8.31,.3-.18,.23-1.05,.23-1.6-.02-2-.08-3.99-.12-5.99,3.69-.5,4.97-4.95,8.74-5.37,.05,0,.02-.79,.02-1.21,.36-.67,.35-1.36,.11-2.06,.2-2.92,1.09-5.49,3.66-7.2,.73-2.33,.46-4.7,.31-7.06,1.48-.97,3.08-1.18,4.78-.77,.07,3.9,.9,7.76,.63,11.69-.21,3.02-.23,6.06-3.88,7.25-.38,.12-.54,.9-.81,1.37-.19,1.88-.37,3.77-.58,5.65-.06,.55-.05,1.45-.34,1.58-4.59,1.97-2.64,6.23-3.4,9.52-1.54,1.18-3.94,.73-5.06,2.7-.11,.89-.23,1.77-.33,2.66-4.07,1.12-5.73,3.76-5.09,7.93,.13,.86,0,1.77-.03,2.65-.46,.29-.92,.59-1.37,.89-3.39-.82-3.74,2.33-5.24,3.99-.93,.22-1.86,.45-2.79,.67-1.79,.86-1.13,2.55-1.34,3.95,0,0-.08,.1-.08,.1-2.01,.79-4.11,.69-6.21,.68-1.75-.02-3.36,.12-3.77,2.31-.13,.67-.5,1.28-1.16,1.52-2.61,.95-2.81,3.13-2.84,5.42Z"/>
  <path class="uuid-766016df-6c5a-4e75-afbd-a6d746a522e6" d="M63.44,19.29c-.58-3.17,.56-4.52,3.94-4.3,2.39,.15,5.51,1.24,6.03-3.03,.15-1.24,1.87-.9,2.94-.91,5.92-.02,11.83-.04,17.75,.01,2.36,.02,4.25-.25,4.18-3.32-.04-2.02,1.5-2.17,3.06-2.17,4.13,0,8.26,.09,12.39-.03,2.64-.08,3.73,1.01,3.42,3.59-.44,1.75,.19,2.43,1.97,1.95,6.59-.02,13.17-.04,19.76-.04,1.3,0,2.78-.28,3.36,1.45-.58,.98-.57,1.8,.61,2.31,2.68,.18,5.35,.35,8.02,.53,.02,.33,.04,.66,.05,.98-.56,.69-.49,1.28,.27,1.77,.37,1.09,.05,2.78,2.08,2.45,2.17,.07,4.33,.13,6.5,.2,.56,.63,1.27,.73,2.05,.61,.07,.66,.13,1.32,.2,1.98-.17,.3-.33,.59-.5,.89-1.74,.79-3.5,.44-5.27,.09-5.85-1.83-11.98-3.05-16.53-7.66-1.51-1.53-3.41-1.95-5.49-1.98-4.89-.05-9.78-.15-14.67-.22-7.26-6.74-18.35-5.3-23.72,0-4.12,.06-8.25,.39-12.35,.12-5.15-.35-8.82,1.53-11.2,6.05-.37,.03-.75,.05-1.12,.08-.46-.63-1.07-.98-1.87-.95-1.83,.16-3.65,.32-5.48,.48-.13-.31-.27-.62-.4-.93Z"/>
  <path class="uuid-766016df-6c5a-4e75-afbd-a6d746a522e6" d="M5.22,121.46c-.03-6.55-.05-13.1-.07-19.65,0-1-.03-2.01,.71-2.83,4.95,.64,5.44,.23,5.48-4.72,.03-3.9-.04-7.81,.01-11.71,.05-3.52-1.08-7.47,3.23-9.57,.1-2.63,.2-5.27,.3-7.9,1.77-.12,3.53-.25,5.3-.37-.19,1.51-.38,3.02-.57,4.53-.07,1.07-.14,2.14-.21,3.2-3.16,.88-4.72,2.92-4.5,6.24-.06,1.89-.09,3.79-.19,5.68-.25,4.54,.59,9.13-.56,13.64-3.09,.59-2.75,3.28-3.3,5.42-.12,.42-.25,.85-.37,1.27-1.35,.77-.92,2.11-1.07,3.29-.62,4.94,.91,9.68,1.37,14.52-2,.44-3.93,.49-5.55-1.05Z"/>
  <path class="uuid-f2dbb76a-dfa2-427b-a24e-61c720bbe548" d="M201.28,163.63c.26-.47,.43-1.25,.81-1.37,3.65-1.2,3.68-4.23,3.88-7.25,.27-3.93-.55-7.79-.63-11.69,.19-.21,.38-.43,.57-.64,2.25-.28,2.8-1.64,2.76-3.75-.1-5.02,0-10.04,.02-15.07,.36-.56,.71-1.12,1.07-1.67,.32,.11,.65,.22,.97,.33,1.61,.01,1.96,.93,1.94,2.39-.07,4.55-.04,9.11-.02,13.66,0,1.89-.63,3.52-2.06,4.73-2.16,1.82-2.78,4.15-2.66,6.85,.09,2,.04,4,0,6-.16,6.26-.39,6.51-6.64,7.48Z"/>
  <path class="uuid-766016df-6c5a-4e75-afbd-a6d746a522e6" d="M201.31,73.31c1.41,.17,2.82,.34,4.23,.51,.04,8.28,.08,16.57,.12,24.85-3.3,.58-3.11-3.09-5.05-4.15-.92-4.63,.1-9.34-.59-13.98,.01-.46,.03-.92,.05-1.38-.05-.65-.1-1.29-.14-1.94,.89-.98,.68-2.19,.68-3.35,.24-.19,.48-.37,.71-.56Z"/>
  <path class="uuid-f2dbb76a-dfa2-427b-a24e-61c720bbe548" d="M95.34,230.14c7.79-.02,15.58-.04,23.37-.04,1.83,0,3.51,.04,4.24-2.26,.58-1.82,2.4-1.73,3.97-1.74,5.01-.05,10.01-.07,15.02-.1-.16,1.7-1.52,1.37-2.54,1.4-2.67,.08-5.34,.05-8.01,.04-3.23,0-6.09,.67-8.32,3.35-2.64,3.17-6.58,2.31-9.97,2.47-4.95,.24-9.93-.31-14.89-.43-1.87-.04-3.03-.59-2.87-2.68Z"/>
  <path class="uuid-8c86a872-19e5-4360-99f3-3901fc5def92" d="M205.65,98.68c-.04-8.29-.08-16.57-.12-24.85,1.75,.52,1.12,2,1.13,3.09,.07,5.7,.07,11.39,0,17.09-.02,1.84,.28,3.29,2.22,4,1.39,.51,2.1,1.54,2.08,3.09-.1,7.14-.16,14.28-.24,21.43-.32-.11-.65-.22-.97-.33-.26,0-.52,0-.78,0,.98-6.37,.05-12.79,.47-19.17,.17-2.63-.7-4-3.42-3.96-.07-.19-.2-.31-.38-.37Z"/>
  <path class="uuid-8c86a872-19e5-4360-99f3-3901fc5def92" d="M161.53,24.21c.17-.3,.33-.59,.5-.89,2.38,.85,4.77,1.4,4.5,4.98-.13,1.74,2.03,1.27,3.27,1.31,2.95,.1,6.27-.71,7.15,3.56,.07,.32,.63,.59,1.02,.78,.29,.14,.65,.19,.98,.18,3.85-.22,1.83,5.04,4.92,5.35,4.04,.41,3.5,3.3,3.48,5.96-.01,1.56-.08,3.12,.84,4.5-.54,.07-1.08,.13-1.62,.2-.21-.15-.42-.29-.63-.44-.13-1.77-.46-3.55-.35-5.3,.19-2.91-1.17-3.78-3.79-3.43l-1.26-.66c1.73-5.68-6.52-4.12-6.38-8.71,0-.19-.91-.5-1.43-.6-.53-.11-1.11-.08-1.66-.06-1.56,.04-3.11,.1-4.67,.16-.39-.54-.77-1.07-1.16-1.61,.15-2.06-.24-3.7-2.83-3.62-.3-.55-.6-1.11-.9-1.66Z"/>
  <path class="uuid-8c86a872-19e5-4360-99f3-3901fc5def92" d="M27.61,49.9c2.31-1.24,1.6-3.44,1.6-5.34,0-2.33,.53-3.78,2.71-5.42,2.34-1.76,2.83-5.81,6.81-5.99,1.19-5.48,5.59-3.08,8.8-3.59,.44-.07,.89-.05,1.33-.07,.06,.49,.11,.98,.17,1.47-1.09,0-2.18,0-3.27-.01q-4.78-.02-5.51,4.61-5.15-.11-5.43,4.76c-.18,.18-.37,.36-.55,.55-2.57-.17-3.55,1.09-3.39,3.58,.11,1.75,0,3.5-.02,5.26-.4,.18-.8,.37-1.2,.55-.69-.12-1.37-.24-2.06-.35Z"/>
  <path class="uuid-f2dbb76a-dfa2-427b-a24e-61c720bbe548" d="M4.68,123.65c1.53,4.11,.61,8.38,.74,12.57,.09,2.97-.35,6,3.38,7.17-5.5,.66-6,.23-6.02-5.25-.02-3.9-.03-7.81,.02-11.71,.02-1.28-.25-2.88,1.89-2.78Z"/>
  <path class="uuid-f5f0d29c-3e8e-4d00-8226-d1f28900b09c" d="M185.94,49.7c.21,.15,.42,.29,.63,.44,.29,2.34,1.83,2.98,3.92,2.9,.28,.72,.78,1.23,1.45,1.58-.18,6.48,.41,7.73,4.3,9.14,.22-.05,.42-.12,.62-.23,.17,.24,.34,.47,.51,.71-1.02,2.07,.31,4.2-.16,6.29-.4-.48-.8-.96-1.2-1.43-.92-2.75-3.79-4.06-4.9-6.66-.06-.39-.12-.78-.18-1.17-.96-5.32-4.28-8.7-8.97-10.98-.13-.58-.26-1.17-.39-1.75,.15-.54,.31-1.08,.46-1.61,1.39,.8,1.69,3.16,3.92,2.77Z"/>
  <path class="uuid-f2dbb76a-dfa2-427b-a24e-61c720bbe548" d="M142.13,225.84c.18-5.08,.18-5.15,5.28-5.12,2.16,.01,3.77-.33,4.75-2.6,.85-1.97,2.86-2.18,4.84-2.1,1.32,.06,2.65,.02,3.97,.03-.19,2.5-2.29,2.46-3.97,3.25-4.91,2.3-10.48,3.08-14.86,6.55Z"/>
  <path class="uuid-f2dbb76a-dfa2-427b-a24e-61c720bbe548" d="M20.31,180.57c1.8,1.14,4.14,1.66,4.22,4.55,.03,1.19,1.38,1.7,2.49,1.89,2.65,.45,3.38,2.16,3.27,4.56-.12,2.58-.29,5.03,3.01,6.18,1.05,.37,1.56,2.25,2.32,3.45-.49,.58-1.28,.88-1.73,.34-2.09-2.5-5.72-4.04-5.09-8.29,.37-2.49-.27-4.03-3.19-5.12-2.98-1.11-4.53-4.42-5.91-7.38,.21-.06,.41-.13,.62-.19Z"/>
  <path class="uuid-8c86a872-19e5-4360-99f3-3901fc5def92" d="M20.17,64.72c-1.77,.12-3.53,.25-5.3,.37-.29-1.45,.83-1.73,1.78-1.9,2.85-.49,3.36-2.29,3.25-4.85-.09-2.12-1.01-4.9,2.59-5.45,.29-.04,.29-1.25,.66-1.74,.55-.73,.76-2.45,2.35-1.16-.12,1.25-.24,2.5-.36,3.75-.64,.34-1.05,.83-.98,1.61-2.62-.29-3.68,.88-3.42,3.49,.14,1.44,.04,2.9,.04,4.35-.21,.51-.41,1.02-.62,1.53Z"/>
  <path class="uuid-f2dbb76a-dfa2-427b-a24e-61c720bbe548" d="M9,143.57c1.86,.48,1.82,1.99,1.83,3.44,.02,2.87,.11,5.74-.02,8.6-.14,3.22-.23,6.33,3.35,7.94-4.4,.16-5.34-.58-5.34-4.67,0-5.1-.36-10.22,.18-15.31Z"/>
  <path class="uuid-8c86a872-19e5-4360-99f3-3901fc5def92" d="M14.58,72.99c-4.31,2.1-3.18,6.05-3.23,9.57-.06,3.9,.01,7.81-.01,11.71-.03,4.95-.53,5.36-5.48,4.72,.13-.84,.79-1.02,1.46-1.06,2.2-.14,2.68-1.51,2.67-3.41-.04-5.42-.02-10.85-.01-16.27q0-4.7,4.6-5.26Z"/>
  <path class="uuid-f5f0d29c-3e8e-4d00-8226-d1f28900b09c" d="M49.03,30.96c-.06-.49-.11-.98-.17-1.47,0,0,.13,.02,.13,.02,1.31,.74,2.5,.69,3.54-.5,.44-.5,1.02-1.06,.71-1.72-.74-1.53-2.27-.94-3.51-1.11,.73-2.25,3.42-1.16,4.58-2.69,1.09,.72,2.17,1.46,3.55,1.52-2.14,4.6-6.28,7.14-10.19,9.92-1.11,.18-2.23,.37-3.34,.56,0-.31,0-.62,.01-.93,1.1-1.8,4.66-.41,4.68-3.61Z"/>
  <path class="uuid-f2dbb76a-dfa2-427b-a24e-61c720bbe548" d="M49.92,210.64c1.85-.06,3.36,.53,3.78,2.5,.51,2.34,2.06,3.08,4.17,2.86,3.62-.39,5.68,1.27,6.59,4.64-3.65-1.43-7.83-1.77-10.95-4.19-1.69-1.3-3.06-3.46-3.59-5.81Z"/>
  <path class="uuid-f2dbb76a-dfa2-427b-a24e-61c720bbe548" d="M161.64,215.84c.03-2.29,.23-4.46,2.84-5.42,.66-.24,1.03-.85,1.16-1.52,.41-2.19,2.02-2.33,3.77-2.31,2.09,.02,4.2,.12,6.21-.68-.11,1.63-1.46,1.8-2.6,2.16-3.77,1.19-7.45,2.44-9.19,6.53-.34,.81-1.15,1.37-2.19,1.24Z"/>
  <path class="uuid-8c86a872-19e5-4360-99f3-3901fc5def92" d="M5.22,121.46c1.62,1.54,3.55,1.49,5.55,1.05,.06,.15,.17,.26,.33,.32,.05,6.54,.1,13.08,.14,19.63-1.69-.37-1.43-1.76-1.45-2.93-.05-2.88-.22-5.78,.03-8.64,.33-3.82-.35-6.76-4.71-7.54-.15-.64-.7-1.3,.11-1.89Z"/>
  <path class="uuid-f2dbb76a-dfa2-427b-a24e-61c720bbe548" d="M75.13,226.2c5.1-.03,10.19-.08,15.29-.09,2.12,0,3.75,.63,3.65,3.2-5.05-2.27-10.42-1.89-15.75-1.89-1.19,0-2.53,.24-3.18-1.22Z"/>
  <path class="uuid-766016df-6c5a-4e75-afbd-a6d746a522e6" d="M197.2,70.55c.47-2.09-.85-4.22,.16-6.29,2.49-.24,3.62,.73,3.33,3.36-.18,1.6,0,3.25,.03,4.88-.21,.27-.41,.54-.62,.8-.92-.26-1.85-.53-2.77-.79-.05-.65-.09-1.3-.14-1.96Z"/>
  <path class="uuid-f2dbb76a-dfa2-427b-a24e-61c720bbe548" d="M186.44,196.32c.02-.88,.16-1.79,.03-2.65-.63-4.17,1.02-6.81,5.09-7.93-1.71,3.53-3.41,7.05-5.12,10.58Z"/>
  <path class="uuid-8c86a872-19e5-4360-99f3-3901fc5def92" d="M191.94,54.63c-.67-.35-1.18-.86-1.45-1.58,.28,0,.55-.02,.83-.03q5.8,.78,5.75,6.91c-.01,1.21-.13,2.41-.2,3.61-.2,.1-.4,.18-.62,.23-.07-1.77-.29-3.54-.17-5.29,.2-3.08-1.1-4.33-4.12-3.85Z"/>
  <path class="uuid-766016df-6c5a-4e75-afbd-a6d746a522e6" d="M57.86,25.02c-1.38-.05-2.46-.8-3.55-1.52-.13-1.35,.1-2.33,1.83-2.24,1.84,.09,3.69,.01,5.54,0-.04,.15,0,.26,.13,.35,.02,.67,.05,1.34,.07,2-1.44,.18-2.82,.53-4.02,1.4Z"/>
  <path class="uuid-766016df-6c5a-4e75-afbd-a6d746a522e6" d="M49.73,26.19c1.24,.17,2.77-.42,3.51,1.11,.32,.65-.26,1.21-.71,1.72-1.04,1.19-2.23,1.24-3.54,.5,.79-.99,.63-2.18,.74-3.32Z"/>
  <path class="uuid-766016df-6c5a-4e75-afbd-a6d746a522e6" d="M25.14,53.74c.12-1.25,.25-2.5,.37-3.75,.7-.03,1.4-.06,2.1-.09,.69,.12,1.37,.24,2.06,.35-.17,2.89-2.03,3.6-4.52,3.49Z"/>
  <path class="uuid-f2dbb76a-dfa2-427b-a24e-61c720bbe548" d="M179.83,201.19c1.5-1.66,1.85-4.81,5.24-3.99-1.57,1.56-1.75,4.95-5.24,3.99Z"/>
  <path class="uuid-766016df-6c5a-4e75-afbd-a6d746a522e6" d="M191.31,53.02c-.28,0-.55,.02-.83,.03-2.08,.08-3.63-.56-3.92-2.9,.54-.07,1.08-.13,1.62-.2,2.63-.59,3.2,.91,3.13,3.07Z"/>
  <path class="uuid-f2dbb76a-dfa2-427b-a24e-61c720bbe548" d="M37.58,201.31c3.38,.28,1.94,3.7,3.4,5.22-1.78,1.1-1.99-.6-2.39-1.51-.51-1.17-.69-2.47-1.01-3.72Z"/>
  <path class="uuid-8c86a872-19e5-4360-99f3-3901fc5def92" d="M153.28,20.53c-2.04,.33-1.72-1.35-2.08-2.45,.31-.65,.3-1.25-.27-1.77-.02-.33-.04-.66-.05-.98,1.58-.48,1.8,.6,1.96,1.72,.16,1.16,.3,2.32,.45,3.48Z"/>
  <path class="uuid-f2dbb76a-dfa2-427b-a24e-61c720bbe548" d="M191.89,183.08c1.12-1.97,3.52-1.52,5.06-2.7-.27,3.55-2.84,2.8-5.06,2.7Z"/>
  <path class="uuid-f2dbb76a-dfa2-427b-a24e-61c720bbe548" d="M175.7,205.82c.2-1.4-.46-3.09,1.34-3.95,0,1.46,.97,3.26-1.34,3.95Z"/>
  <path class="uuid-8c86a872-19e5-4360-99f3-3901fc5def92" d="M63.44,19.29c.13,.31,.27,.62,.4,.93-.51,.7-1.14,1.25-2.03,1.4-.12-.09-.17-.21-.13-.35-.27-1.42,1.02-1.45,1.75-1.98Z"/>
  <path class="uuid-8c86a872-19e5-4360-99f3-3901fc5def92" d="M119.11,11.09c-1.78,.48-2.41-.2-1.97-1.95,1.08,.23,1.75,.87,1.97,1.95Z"/>
  <path class="uuid-8c86a872-19e5-4360-99f3-3901fc5def92" d="M161.83,21.35c-.78,.12-1.5,.02-2.05-.61,.88-.44,1.71-.72,2.05,.61Z"/>
  <path class="uuid-8c86a872-19e5-4360-99f3-3901fc5def92" d="M142.84,14.81c-1.18-.51-1.19-1.33-.61-2.31,.65,.65,.76,1.45,.61,2.31Z"/>
  <path class="uuid-f2dbb76a-dfa2-427b-a24e-61c720bbe548" d="M49.14,208.68c.19,.43,.38,.86,.56,1.28-.88-.13-1.32-.44-.56-1.28Z"/>
  <path class="uuid-8c86a872-19e5-4360-99f3-3901fc5def92" d="M200.12,73.3c.21-.27,.41-.54,.62-.8,.41,.12,.64,.36,.57,.82-.24,.19-.48,.37-.71,.56-.16-.19-.32-.38-.48-.57Z"/>
  <path class="uuid-766016df-6c5a-4e75-afbd-a6d746a522e6" d="M89.91,206.7c-5.36-.07-10.71-.14-16.07-.2-.03-.49-.31-.71-.78-.73-.14-1.29-.28-2.57-.42-3.86,.19-.14,.27-.33,.23-.57,1.27-.09,2.55-.18,3.82-.27,4.24,1.2,8.59,.87,12.91,.87,1.89,0,3.49,.45,4.71,1.97,1.97,2.45,4.67,3.29,7.67,3.32,3.77,.04,7.55,.02,11.32,0,1.1,0,2.26,.07,3-1.03,.38-.12,.75-.24,1.13-.36,.47,.66,1.17,.6,1.85,.58,1.1,.1,2.21,.19,3.31,.29,.02,3.03-1.98,3.67-4.43,3.69-6.68,.04-13.35,.04-20.03,.05-1.14,0-2.22-.2-3.07-1.05-.1-1.25,.48-2.89-1.69-2.94-1.17-.12-2.34-.29-3.46,.24Z"/>
  <path class="uuid-8c86a872-19e5-4360-99f3-3901fc5def92" d="M95.06,209.4c.85,.85,1.93,1.05,3.07,1.05,6.68-.01,13.35-.01,20.03-.05,2.45-.01,4.45-.66,4.43-3.69,.52-.24,.83-.64,.93-1.21,6.27,.87,12.54,1.11,18.8-.16-.32,1.82-.32,1.92-2.26,1.95-4.01,.07-8.03,.07-12.04,.04-1.89-.01-3.51,.1-4.09,2.43-.44,1.78-1.99,2.25-3.68,2.25-7.69,0-15.38,0-23.07,.03-1.85,0-3.51-.6-4.03-2.35-.53-1.81-1.97-2.21-3.24-2.99,1.12-.53,2.29-.36,3.46-.24,.48,1.03,.48,2.33,1.69,2.94Z"/>
  <path class="uuid-8c86a872-19e5-4360-99f3-3901fc5def92" d="M49.44,190.8c-1.18-2.2-3.17-2.51-5.37-2.28-2.67,.28-4.6-.5-5.21-3.39-.11-.52-.48-1.4-.76-1.41-4.59-.15-4.82-5.05-7.73-7.03-2.01-1.37-1.53-3.62-1.41-5.55,.14-2.17-.41-3.81-2.22-5.01,.94-.05,1.88-.1,2.82-.16,.56,.46,1.13,.92,1.69,1.38-.09,1.62-.09,3.25-.29,4.85-.27,2.06,.46,3.13,2.61,3.07,.41,.41,.81,.81,1.22,1.22-.25,2.89,.67,4.7,3.97,4.31,.36,.75,.89,1.33,1.63,1.71,.18,1.13,.35,2.26,.53,3.38,1.32,2.02,3.37,1.07,5.09,1.13,2.58,.1,3.99,.94,3.42,3.76Z"/>
  <path class="uuid-766016df-6c5a-4e75-afbd-a6d746a522e6" d="M142.31,205.34c-6.25,1.27-12.52,1.03-18.8,.16-.04-.75-.08-1.5-.13-2.25,.19-.08,.39-.13,.6-.14,.84,.1,1.32-.3,1.51-1.1,4.42-.26,8.91,.44,13.26-.92,1.02,.08,2.03,.16,3.05,.25,.09,.55,.15,1.1,.72,1.4l-.22,2.58Z"/>
  <path class="uuid-f5f0d29c-3e8e-4d00-8226-d1f28900b09c" d="M166.22,189.27c-.09,.37-.17,.75-.26,1.12-1.42,.52-2.83,1.03-4.25,1.55-1.36-.25-2.71-.51-4.07-.76,2.89-2.47,5.78-4.93,8.67-7.4,1,1.87,4.53,3.06,6.38,1.87,2.26-1.45,.57-3.01-.22-4.48,1.09-1.35,1.83-3.01,3.39-3.95-.11,1.69,.02,3.22,2.17,3.5-.94,1.19-2.39,1.99-2.61,3.72-.26,2.03-1.6,2.73-3.53,2.66-1.32-.05-2.66-.04-3.98,.09-1.16,.12-2.29,.45-1.68,2.08Z"/>
  <path class="uuid-766016df-6c5a-4e75-afbd-a6d746a522e6" d="M11.24,142.45c-.05-6.54-.1-13.08-.14-19.63,1.12,.23,2.24,.47,3.36,.7,.37,3.81,.33,7.63,.1,11.44-.36,.44-.32,.86,.09,1.24,.06,.23,.11,.46,.17,.68-.02,1.87-.04,3.74-.06,5.61-1.01-.17-2.02-.3-2.96,.28-.2-.09-.39-.2-.56-.33Z"/>
  <path class="uuid-f5f0d29c-3e8e-4d00-8226-d1f28900b09c" d="M196.47,160.4c0,.42,.03,1.21-.02,1.21-3.77,.42-5.05,4.87-8.74,5.37-1.79,.75-1.08,2.37-1.26,3.68-.21,1.53,.54,3.34-1.29,4.4,.03-1.99,.03-3.97,.1-5.96,.05-1.54-.47-2.58-2.14-2.76,.79-1.41,2.57-2.13,2.72-3.98,.18-.08,.36-.13,.55-.18,3.21-.7,3.45-3.43,4.04-5.92,.23-.14,.46-.28,.69-.42,.16,.14,.34,.24,.54,.3-.43,5.06-.32,5.17,4.48,4.25,.1-.02,.22,0,.33,0Z"/>
  <path class="uuid-f5f0d29c-3e8e-4d00-8226-d1f28900b09c" d="M76.69,201.07c-1.27,.09-2.55,.18-3.82,.27-2.86-1.18-5.8-.63-8.73-.39-.16-.02-.29-.1-.39-.22,.14-2.07-.13-3.78-2.9-3.31-.57,0-1.14,0-1.71,0-.01-.28-.02-.57-.03-.85,1.91-.65,3.25-1.79,3.36-3.96,3.06,.21,4.59,3.25,7.38,3.96l.04,.04c1.69,2.37,4.82,2.54,6.8,4.48Z"/>
  <path class="uuid-8c86a872-19e5-4360-99f3-3901fc5def92" d="M185.16,175.06c1.83-1.06,1.08-2.87,1.29-4.4,.18-1.31-.53-2.93,1.26-3.68,.04,2,.11,3.99,.12,5.99,0,.55,.07,1.42-.23,1.6-3.48,2.12-4.93,6.28-8.4,8.31-.97,.57-1.99,.74-2.22,2.09-.47,2.7-2.36,3.54-4.86,3.53-2,0-4.01-.09-5.9,.76-.6-1.63,.53-1.96,1.68-2.08,1.32-.13,2.65-.14,3.98-.09,1.93,.07,3.27-.62,3.53-2.66,.23-1.73,1.67-2.53,2.61-3.72,.6-.07,1.21-.13,1.81-.2,1.89-1.18,1.23-3.66,2.62-5.1l2.71-.36Z"/>
  <path class="uuid-f5f0d29c-3e8e-4d00-8226-d1f28900b09c" d="M49.44,190.8c.57-2.82-.84-3.66-3.42-3.76-1.72-.06-3.78,.89-5.09-1.13,2.92-.43,6.15,1.09,8.76-1.36,3.08,2.24,5.34,5.48,8.79,7.28-1.12,.2-2.58-.33-3.15,1.11-.55,1.42,.84,2.08,1.49,3.02,.12,.18,.2,.39,.3,.58-1.35,.11-2.76,.33-3.18-1.51-.21-.94,0-2.06-1.13-2.6-.11-.06-.19-.15-.26-.26-.68-1.17-1.8-.95-2.86-.91-.14-.13-.22-.28-.25-.46Z"/>
  <path class="uuid-766016df-6c5a-4e75-afbd-a6d746a522e6" d="M14.57,149.64c-.03-1.91-.07-3.83-.1-5.74,.11-.32,.22-.63,.34-.94,2.04-.46,3.11,1.38,4.7,2,.28,1.97,.57,3.94,.85,5.9-.07,.33-.14,.66-.22,.99-1.63-.14-3.26-.37-4.86,.14,0,0-.11-.11-.11-.11,.26-.87,.09-1.62-.59-2.24Z"/>
  <path class="uuid-8c86a872-19e5-4360-99f3-3901fc5def92" d="M142.53,202.76c-.57-.3-.63-.86-.72-1.4,.57-.14,.99-.44,1.18-1.01,1.85-.03,3.7-.09,5.55-.09,1.55,0,2.5-.6,2.61-2.23,.62-.45,1.24-.9,1.86-1.35,2.2-.07,4.41-.14,6.61-.21,.81-.18,1.62-.36,2.42-.54,.09,2.58-1.95,1.81-3.24,1.93-2.52,.23-5.27-.59-6.5,2.9-.42,1.2-2.26,1.17-3.6,1.19-2.09,.04-4.2-.02-6.18,.81Z"/>
  <path class="uuid-766016df-6c5a-4e75-afbd-a6d746a522e6" d="M196.47,160.4c-.11,0-.22-.02-.33,0-4.8,.92-4.92,.81-4.48-4.24-.12-.18-.29-.3-.5-.36l.12-1.32c.42-.5,.85-1,1.27-1.5,2.31-.73,3.67-.26,3.37,2.54-.1,.98-.11,2.01,.65,2.83,.24,.7,.26,1.39-.11,2.06Z"/>
  <path class="uuid-766016df-6c5a-4e75-afbd-a6d746a522e6" d="M200.56,144.08c.15,2.36,.42,4.73-.31,7.06-1.63-.17-3.52,.1-3.82-2.28-.02-.89-.05-1.77-.07-2.66,.59-1.03,.74-2.15,.74-3.31,.28,0,.56,.02,.84,.03,1.01,.09,1.85,.55,2.62,1.17Z"/>
  <path class="uuid-f5f0d29c-3e8e-4d00-8226-d1f28900b09c" d="M196.42,148.85c.3,2.39,2.19,2.12,3.82,2.29-2.58,1.71-3.46,4.28-3.66,7.2-.77-.82-.76-1.85-.65-2.83,.29-2.8-1.07-3.27-3.37-2.54,.89-1.75,2.41-2.9,3.87-4.12Z"/>
  <path class="uuid-f5f0d29c-3e8e-4d00-8226-d1f28900b09c" d="M20.56,162.08c-.15-.52-.3-1.03-.45-1.55,.26-.05,.51-.1,.76-.16,2.07,.24,3.47-.36,3.42-2.75,1.93,1.04,2.66,3.14,4.04,4.66-1.17,.28-2.35,.56-3.52,.83-.45,0-.89,0-1.34,.01,0,0,.02,.01,.02,.01-.51-1.65-1.74-1.29-2.93-1.05Z"/>
  <path class="uuid-8c86a872-19e5-4360-99f3-3901fc5def92" d="M15.28,151.98c1.61-.51,3.24-.28,4.86-.14,.21,.61,.43,1.23,.64,1.84,.03,2.23,.06,4.46,.09,6.69-.25,.05-.51,.1-.76,.16-.13-.18-.37-.37-.36-.53,.34-3.7-.66-6.64-4.47-8.02Z"/>
  <path class="uuid-f5f0d29c-3e8e-4d00-8226-d1f28900b09c" d="M200.56,144.08c-.77-.62-1.62-1.08-2.62-1.17,1.33-1.27,.95-3.27,1.97-4.67,.63,3.26,2.97,3.75,5.74,3.54,.08,.3,.17,.6,.25,.9-.19,.21-.38,.43-.57,.64-1.7-.42-3.3-.2-4.78,.77Z"/>
  <path class="uuid-766016df-6c5a-4e75-afbd-a6d746a522e6" d="M24.81,163.12c1.17-.28,2.35-.56,3.52-.83,.46,.45,.93,.9,1.39,1.34-.05,.78-.1,1.57-.16,2.35-.94,.05-1.88,.1-2.82,.15-.74,.27-1.44,.05-2.13-.2,.06-.94,.13-1.88,.19-2.82Z"/>
  <path class="uuid-8c86a872-19e5-4360-99f3-3901fc5def92" d="M52.81,192.43c1.13,.54,.92,1.66,1.13,2.6,.42,1.84,1.83,1.62,3.18,1.51,.66,0,1.33,0,1.99,0,.01,.28,.02,.57,.03,.85-5.68,1.38-6.93,.4-6.33-4.98Z"/>
  <path class="uuid-8c86a872-19e5-4360-99f3-3901fc5def92" d="M64.13,200.95c2.93-.24,5.87-.79,8.73,.39,.04,.24-.03,.42-.23,.57-2.85-.22-5.85,.97-8.5-.96Z"/>
  <path class="uuid-8c86a872-19e5-4360-99f3-3901fc5def92" d="M161.71,191.94c1.42-.52,2.84-1.03,4.25-1.55,.1,2.67-3.74,2.01-3.83,4.52-.2-.57-.4-1.14-.6-1.71,.06-.42,.12-.84,.18-1.26Z"/>
  <path class="uuid-8c86a872-19e5-4360-99f3-3901fc5def92" d="M60.85,197.42c2.77-.47,3.04,1.24,2.9,3.31-1.99-.21-2.55-1.66-2.9-3.31Z"/>
  <path class="uuid-f5f0d29c-3e8e-4d00-8226-d1f28900b09c" d="M161.52,193.2c.2,.57,.4,1.14,.6,1.71-.02,.34-.05,.68-.07,1.02-.81,.18-1.61,.36-2.42,.54,.48-1.18,.58-2.57,1.89-3.27Z"/>
  <path class="uuid-8c86a872-19e5-4360-99f3-3901fc5def92" d="M49.69,191.27c1.06-.05,2.18-.27,2.86,.91-1.13,.25-2.29,.62-2.86-.91Z"/>
  <path class="uuid-8c86a872-19e5-4360-99f3-3901fc5def92" d="M20.56,162.08c1.19-.24,2.42-.59,2.93,1.05-1.11,.02-2.29,.23-2.93-1.05Z"/>
  <path class="uuid-8c86a872-19e5-4360-99f3-3901fc5def92" d="M14.81,142.95c-.11,.31-.22,.63-.34,.94-.96-.2-2.05-.09-2.67-1.11,.94-.57,1.95-.44,2.96-.28-.03,.15-.01,.3,.05,.44Z"/>
  <path class="uuid-8c86a872-19e5-4360-99f3-3901fc5def92" d="M24.81,163.12c-.06,.94-.13,1.88-.19,2.82-1.58-.44-1.13-1.72-1.15-2.81,.45,0,.89,0,1.34-.01Z"/>
  <path class="uuid-8c86a872-19e5-4360-99f3-3901fc5def92" d="M14.57,149.64c.69,.62,.85,1.37,.59,2.24-1.2-.48-1.12-1.3-.59-2.24Z"/>
  <path class="uuid-8c86a872-19e5-4360-99f3-3901fc5def92" d="M73.06,205.77c.47,.02,.75,.24,.78,.73-.23,.1-.56,.34-.68,.26-.39-.24-.33-.63-.1-.99Z"/>
  <path class="uuid-0f094053-44cf-4567-bae5-34ea91d8af95" d="M119.58,14.44c4.89,.08,9.78,.17,14.67,.23,2.07,.02,3.97,.44,5.49,1.98,4.55,4.62,10.68,5.84,16.53,7.66,.73,2.22,2.25,3.76,4.06,5.17,2.36,1.83,4.57,3.85,6.84,5.79-2.08,.53-3.69-.32-5.07-1.76-2.34-2.45-5.52-3.96-7.58-6.73-.22-.06-.44-.11-.65-.17-.77-1.27-2.09-1.61-3.37-1.67-1.91-.08-3.63-.58-5.2-1.63-.08-.21-.15-.42-.23-.63-1.4-1.93-3.58-1.46-5.5-1.77-1.12-.05-2.21-.21-3.13-.93-.25-3.22-2.46-3.83-5.12-3.9-5.51-.14-11.05,.42-16.52-.62-.88-.14-1.54-.59-2-1.35,.02-.68,.03-1.37,.05-2.05,2.23,.86,3.88,3.33,6.74,2.39Z"/>
  <path class="uuid-0f094053-44cf-4567-bae5-34ea91d8af95" d="M72.31,20.61c2.39-4.52,6.05-6.4,11.2-6.05,4.1,.27,8.23-.06,12.35-.12,1.27,.46,2.31-.09,3.48-.55,1.85-.72,3.28-2.39,5.43-2.36-.08,.8-.17,1.6-.25,2.4-1.21,1.34-2.81,1.58-4.49,1.6-5.5,.89-11.05,.43-16.58,.55-1.99,.04-3.84,.24-4.28,2.7-.38,1.83-1.77,2.07-3.3,2.11-1.19-.09-2.38-.19-3.57-.28Z"/>
  <path class="uuid-f0995c3e-2bc5-4abc-88ea-c707d0212998" d="M72.31,20.61c1.19,.09,2.38,.19,3.57,.28-.37,.38-.7,1.05-1.11,1.1-4.58,.54-7.28,5.34-12.13,5.33-.57,0-1.25,.88-1.71,1.49-4.21,5.49-9.7,8.49-16.65,8.77,.02-.7,.03-1.39,.05-2.09,1.11-.18,2.23-.37,3.34-.55,5.88,1.39,7.53-4.39,11.06-6.86,1.55-1.08,2.82-2.82,4.79-3.12,3.15-.47,5.6-1.97,7.66-4.28,.37-.03,.75-.05,1.12-.08Z"/>
  <path class="uuid-0f094053-44cf-4567-bae5-34ea91d8af95" d="M71.19,20.69c-2.06,2.31-4.51,3.8-7.66,4.28-1.97,.3-3.24,2.03-4.79,3.12-3.52,2.46-5.18,8.25-11.06,6.86,3.91-2.78,8.05-5.32,10.19-9.92,1.2-.87,2.58-1.21,4.01-1.4,2.22-1.8,5.43-1.7,7.45-3.89,.8-.03,1.4,.32,1.87,.95Z"/>
  <path class="uuid-f5f0d29c-3e8e-4d00-8226-d1f28900b09c" d="M167.17,35.26c-2.27-1.94-4.49-3.96-6.84-5.79-1.81-1.41-3.33-2.96-4.06-5.17,1.76,.34,3.52,.7,5.27-.09,.3,.55,.6,1.11,.89,1.66,.19,1.8-.45,4.24,2.83,3.62,.39,.54,.77,1.07,1.16,1.61,.14,3.14,3.81,1.61,4.8,3.63-.46,.18-.91,.35-1.37,.53h-2.68Z"/>
  <path class="uuid-f5f0d29c-3e8e-4d00-8226-d1f28900b09c" d="M104.78,11.54c-2.15-.03-3.59,1.64-5.43,2.36-1.17,.46-2.21,1-3.48,.55,5.37-5.3,16.46-6.74,23.72,0-2.86,.95-4.52-1.53-6.74-2.39-2.62-1.17-5.37-.42-8.06-.52Z"/>
  <path class="uuid-f5f0d29c-3e8e-4d00-8226-d1f28900b09c" d="M69.32,19.73c-2.02,2.19-5.23,2.09-7.45,3.89-.02-.67-.05-1.33-.07-2,.89-.16,1.52-.7,2.03-1.4,1.83-.16,3.65-.32,5.48-.48Z"/>
  <path class="uuid-f5f0d29c-3e8e-4d00-8226-d1f28900b09c" d="M150.92,16.32c.58,.52,.58,1.12,.27,1.77-.77-.49-.83-1.08-.27-1.77Z"/>
  <path class="uuid-f0995c3e-2bc5-4abc-88ea-c707d0212998" d="M14.14,98.01c1.16-4.51,.32-9.09,.56-13.64,.1-1.89,.13-3.79,.19-5.68,.41-.03,.82-.06,1.24-.1,1.58,.58,3.5,.1,3.59-1.28,.3-4.55,3.93-7.7,4.7-11.82,.86-4.61,4.42-7.28,6.78-10.67,1.66-2.38,3.64-4.27,3.83-7.34,.04-.63,.28-1.6,.71-1.8,3.4-1.57,4.81-5.53,8.37-6.87,.02,.33,.2,.81,.05,.98-4.08,4.51-7.23,9.6-10.27,14.87-1.64,2.86-3.56,6.01-6.52,8.12-1.1,.78-.83,2.46-1.26,3.68-1.41,3.99-3.07,7.89-4.8,11.75-.31,.69-1.32,1.31-2.11,1.49-2.15,.49-2.44,1.95-2.43,3.77,.03,4.68,0,9.37,0,14.05,0,1.57,.13,3.21-1.8,3.9-.28-.47-.55-.95-.83-1.42,0-.67,0-1.34,0-2.01Z"/>
  <path class="uuid-0f094053-44cf-4567-bae5-34ea91d8af95" d="M44.12,38.82c-3.56,1.33-4.97,5.29-8.37,6.87-.43,.2-.67,1.17-.71,1.8-.19,3.07-2.18,4.96-3.83,7.34-2.36,3.39-5.92,6.06-6.78,10.67-.77,4.11-4.4,7.26-4.7,11.82-.09,1.38-2.01,1.85-3.59,1.28,1.22-1.98,3.08-3.62,3.26-6.14,.07-1.07,.14-2.14,.21-3.2,2.04-1.09,2.97-3.09,3.59-5.07,.95-3.06,2.65-5.53,4.58-8.04,1.57-2.05,4.4-3.33,4.5-6.42h0c1.08-.35,1.33-1.12,1.08-2.14,.02-.43,.05-.85,.07-1.28,.93-2.56,3.84-3.52,4.87-6l2-2.03c1.92-.33,2.63-1.85,3.3-3.4,.25-.11,.5-.22,.75-.32,0,.31,0,.62-.01,.93-.02,.7-.03,1.39-.05,2.09-.06,.41-.11,.83-.17,1.24Z"/>
  <path class="uuid-f5f0d29c-3e8e-4d00-8226-d1f28900b09c" d="M32.27,49.73c-.11,3.09-2.93,4.37-4.5,6.42-1.93,2.51-3.63,4.98-4.58,8.04-.62,1.98-1.55,3.98-3.59,5.07,.19-1.51,.38-3.02,.57-4.53,.21-.51,.41-1.03,.62-1.54,3.25-1.7,3.02-4.89,3.38-7.84-.07-.78,.34-1.27,.98-1.61,2.49,.11,4.35-.6,4.52-3.49,.4-.18,.8-.37,1.2-.55,.47,0,.94,.02,1.41,.03Z"/>
  <path class="uuid-f5f0d29c-3e8e-4d00-8226-d1f28900b09c" d="M14.46,123.52c-1.12-.23-2.24-.47-3.36-.7-.16-.06-.27-.16-.33-.32-.46-4.84-1.99-9.57-1.37-14.52,.15-1.17-.28-2.51,1.07-3.29,.31,0,.61,.01,.91,.02,.03,.67,.05,1.33,.08,2,0,2.24-.01,4.48-.02,6.72-.24,1.33-.38,2.67,.02,4,.28,1.92,1.68,3.03,2.99,4.22,0,.62,0,1.24,0,1.86Z"/>
  <path class="uuid-f5f0d29c-3e8e-4d00-8226-d1f28900b09c" d="M19.39,72.45c-.18,2.53-2.04,4.17-3.26,6.14-.41,.03-.82,.06-1.24,.1-.22-3.32,1.33-5.36,4.5-6.24Z"/>
  <path class="uuid-f5f0d29c-3e8e-4d00-8226-d1f28900b09c" d="M14.14,98.01c0,.67,0,1.34,0,2.01-1.01,1.23-1.37,3.08-3.31,3.41,.55-2.14,.21-4.83,3.3-5.42Z"/>
  <path class="uuid-0f094053-44cf-4567-bae5-34ea91d8af95" d="M10.84,103.43c1.93-.33,2.3-2.19,3.31-3.41,.28,.47,.55,.95,.83,1.42-.04,.42-.07,.85-.11,1.27-1.05,.87-2,1.9-3.48,2.02-.3,0-.61-.01-.91-.02,.12-.42,.25-.85,.37-1.27Z"/>
  <path class="uuid-15feb99b-daed-4272-bc73-180c85e5bfbd" d="M205.9,142.67c-.08-.3-.17-.6-.26-.9,.84-5.82,.45-11.69,.59-17.54,.81-.18,1.56-.77,2.45-.37-.02,5.02-.12,10.05-.02,15.07,.04,2.11-.52,3.47-2.76,3.75Z"/>
  <path class="uuid-f5f0d29c-3e8e-4d00-8226-d1f28900b09c" d="M208.69,123.86c-.9-.39-1.64,.19-2.45,.37-1.77-2.17-3.52-.22-5.28,.02-.08-.46-.17-.92-.25-1.38,2.21-.46,2.99-3.09,5.26-3.46-.11,2.14,1.05,2.9,3.02,2.76,.26,0,.52,0,.78,0-.36,.56-.71,1.12-1.07,1.67Z"/>
  <path class="uuid-542a7644-c09a-4fc2-aa08-50850625efc1" d="M14.87,102.71c.04-.42,.07-.85,.11-1.27,1.92-.69,1.8-2.33,1.8-3.9,.01-4.68,.03-9.37,0-14.05-.01-1.82,.28-3.28,2.43-3.77,.79-.18,1.8-.8,2.11-1.49,1.73-3.86,3.39-7.76,4.8-11.75,.43-1.21,.15-2.9,1.26-3.68,2.97-2.11,4.88-5.26,6.52-8.12,3.04-5.28,6.19-10.36,10.27-14.87,.16-.17-.02-.64-.05-.98,.06-.41,.11-.83,.17-1.24,6.94-.28,12.44-3.28,16.65-8.77,.46-.6,1.14-1.49,1.71-1.49,4.85,.01,7.54-4.79,12.13-5.33,.41-.05,.74-.72,1.11-1.1,1.52-.04,2.92-.27,3.3-2.11,2.43-1.24,5.02-1.39,7.69-1.31,2.97,.09,5.95,.07,8.92-.02,1.63-.05,3.37-.08,4.24-1.92,1.68-.02,3.28-.26,4.49-1.6,2.76-.1,5.53-.94,8.27,.17,.46,.76,1.12,1.21,2,1.35,.5,1.77,2,1.74,3.42,2.06,6,1.36,12.45-.56,18.22,2.46,.92,.71,2.01,.87,3.13,.92,1.23,2.47,3.44,1.88,5.5,1.77,.08,.21,.15,.42,.23,.63-.24,1.65,.75,2.41,2.12,2.81,2.11,.62,4.25,1.06,6.45,.48,.22,.06,.44,.11,.65,.17-.34,1.57,.13,2.88,1.33,3.9,4.28,3.64,8.68,7.02,14.76,6.7l.05,.14c.08,2.03,1.28,3.05,3.14,3.46,.24,.22,.47,.44,.71,.66,.4,3.07,3.41,3.24,5.25,4.7,.05,.66,.1,1.31,.16,1.97,.03,1.62,.1,3.23,1.75,4.18,.36,.97,1.14,1.34,2.09,1.47,2.41,3.98,4.82,7.96,7.23,11.94,.03,.43,.06,.87,.09,1.3-.31,.55-.32,1.28,.16,1.5,2.41,1.11,3.58,3.39,5.19,5.25l.24-.11c-.09,.92-.18,1.83-.26,2.75-.76,1.63,.06,2.34,1.55,2.65,.2,.05,.41,.1,.61,.15,.24,.69,.7,1.11,1.45,1.16,.69,4.64-.33,9.35,.59,13.98-.76,1.29-.45,2.64-.2,3.98-.12,.71-.24,1.43-.36,2.14-.29,1.87,.48,3.11,2.01,4.23,3.39,2.47,3.59,9.35,.29,11.99-1.93,1.54-2.58,3.46-3.04,5.72-1.2,5.84,.37,12.17-3.7,17.57-1.49,1.98-1.34,5.07-4.34,6.25-.8,.32-1.36,1.77-1.65,2.8-1.54,5.37-3.73,10.28-8.67,13.46-.35,.22-.76,.67-.78,1.04-.2,3.84-2.67,6.14-5.33,8.47-1.65,1.44-3.09,3.26-4.18,5.16-.95,1.66-2.03,2.52-3.92,2.54-3.03,.03-5.09,1.59-7.01,3.9-2.55,3.08-5.45,5.93-9.87,6.14-2.04,.1-3.6,1.11-4.8,2.67-.62,.81-1.21,1.64-2.23,1.95-5.97,1.77-11.45,5.15-18.21,4.29-3.34-.42-7.3,.06-8.79,4.42-.15,.44-.76,.97-1.21,1.03-4.76,.62-9.54,.78-14.29-.11-.4-.08-.98-.37-1.09-.7-1.27-3.84-4.78-3.85-7.72-4.05-5.19-.35-10.39,.11-15.13-2.85-2.56-1.6-6.49-1.12-7.16-5.43-.22-1.4-1.89-1.86-3.29-1.79-2.26,.12-3.76-1.22-5.62-2.15-3.01-1.51-5.52-3.21-7.53-5.86-.72-.95-2-.85-3.13-.72-1.1-.05-2.2-.1-3.3-.15-.43-.75-1.08-1.19-1.94-1.31-.09-.6-.18-1.21-.27-1.81,.42-1.69-.74-2.64-1.7-3.73-2.39-2.7-4.65-5.27-6.15-8.85-1.51-3.63-4.12-7.15-7.32-9.88-1.06-.91-2.12-2.13-2.18-3.24-.21-4.38-4.23-7.3-4.16-11.75,.02-1.31-1.14-2.09-2.52-2.24-.66-.23-1.32-.46-1.98-.69-2.16-4.07-1.08-8.47-1.34-12.74-.1-1.63,.28-3.46-1.89-4.13-.1-.6-.2-1.2-.31-1.8-.87-1.73-1.4-3.68-3.15-4.84,0-2.24,.01-4.48,.02-6.72,1.56-.97,4.4-.87,3.41-4.01Zm29.4,63.15c1.34,1.77,4.23,1.13,5.25,3.38,.02,.64,.03,1.28,.05,1.92-.14,1.75,1.35,1.45,2.05,1.24,5.68-1.67,8.08,3.33,9.65,6.34,2,3.83,4.13,4.69,7.76,4.44,1.33-.09,2.67,.08,4.01,.14,.03,.86,.05,1.72,.08,2.57-1,2.53,.84,2.58,2.41,2.6,4.12,.08,8.25,.05,12.37,.03,2.22,0,4.42-.34,5.42,2.59,.44,1.28,2.17,1.41,3.54,1.41,7.69,.01,15.38,.02,23.07,0,1.61,0,3.34-.25,3.93-1.95,.69-1.95,2.05-2.06,3.69-2.05,3.9,.02,7.8,0,11.7,0,1.71,0,3.35-.48,3.48-2.37,.19-2.87,1.89-3.04,4.1-3.02,1.74,.02,4.16,.77,5.03-.86,1.4-2.64,3.28-4.87,4.91-7.3,0-.4,.01-.79,.02-1.19,.54-.31,.75-.8,.74-1.41,2.52-.19,5.03-.38,7.55-.58,2.35-1.2,.88-3.5,1.5-5.2,.62-.04,1.24-.07,1.87-.11,1.15,.69,2.14,.78,2.69-.73,1.1-2.65-.15-5.64,1.22-8.25,2.17,.37,4.05,.14,4.78-2.38,.2-.68,.59-1.25,1.32-1.36,3.91-.57,4.25-3.36,4.04-6.47-.14-2.12,.23-3.66,2.82-3.97,1.99-.24,2.59-1.8,2.57-3.7-.05-3.9,.02-7.8-.02-11.7-.02-1.78,.2-3.28,2.18-4.03,1.58-.6,1.85-2.07,1.85-3.61-.01-6.35,0-12.71,0-19.06,0-1.53-.25-3.02-1.83-3.62-1.97-.75-2.22-2.23-2.2-4.02,.04-4.01,.05-8.03-.03-12.04-.03-1.57-.1-3.4-2.62-2.4-.85-.03-1.7-.07-2.55-.1-.06-1.33-.21-2.66-.15-3.98,.17-3.38,.15-6.58-4.22-7.39-.41-.08-.98-.72-1.02-1.15-.36-3.45-3.1-3.96-5.65-4.72,0-1.99-.01-3.98-.02-5.96-.01-4.25-3.23-2.31-5.23-2.71-.39-.97-.79-1.94-1.18-2.91-2.49-2.24-5.47-.73-8.21-1.08l-.05-.05c-.11-2.39,1.27-5.74-3.35-5.24-.21-.03-.42-.08-.62-.14,.29-2.44-.79-3.85-3.21-4.2-1.43-.21-2.86-.43-4.3-.51-1.39-.08-2.4-.47-2.49-2.07-.18-2.84-2.05-3.36-4.44-3.32-3.57,.05-7.15-.03-10.72,.02-1.82,.03-3.3-.35-4.07-2.21-.74-1.78-2.31-1.86-3.94-1.86-7.59,.01-15.19,.02-22.78,0-1.79,0-3.32,.21-3.84,2.36-.41,1.68-1.88,1.68-3.25,1.69-4.36,.01-8.71,0-13.07,.02-1.56,0-3.26-.15-3.66,2-.18,1.13-.36,2.26-.53,3.39-1.77,0-3.54-.06-5.31-.02-3.56,.08-4.55,1.08-4.86,4.78-.42,.04-.84,.08-1.25,.12-4.28-.05-2.39,3.15-2.74,5.18l-.03,.03c-2.74,.39-5.71-1.07-8.23,1.05-1.25,.62-1.06,1.84-1.19,2.91-1.62,.28-3.61-.82-4.76,1.25l-.03,.03c-1.76,.65-.62,3.14-1.91,3.6-3.7,1.33-3.52,4.53-4.02,7.41-.24,1.39-.85,2.17-2.22,2.55-2.42,.68-3.24,2.46-3.18,4.86,.05,2,.21,4.03-.65,5.94-.4,.03-.81,.06-1.21,.09-2.17-.04-2.11,1.56-2.13,3-.04,3.87-.07,7.75,0,11.63,.04,2.27-.37,3.96-3.15,3.98-1.25,0-2.1,.65-2.01,2.09,.82,6.37,.19,12.78,.4,19.16,.05,1.41-.29,2.89,.74,4.13,.33,.43,.59,1.14,.99,1.23,2.85,.65,3.14,2.63,3.05,5.08-.13,3.35-.05,6.7-.02,10.05,.01,1.19-.26,2.55,1.32,3.1,.2,.04,.4,.07,.61,.1,1.77,1.87,2.38,4.08,2.11,6.63-.22,2.08,.63,3.95,2.67,4.38,1.85,.39,3.1,1.52,4.58,2.39,.39,1.55,1.66,1.71,2.93,1.88,.27,2.74-1.26,5.72,1.08,8.19l.04,.04Z"/>
  <path class="uuid-f5f0d29c-3e8e-4d00-8226-d1f28900b09c" d="M200.4,98.5c-.25-1.34-.57-2.69,.2-3.98,1.94,1.07,1.75,4.73,5.05,4.15,.19,.06,.32,.19,.39,.37,.14,1.49,.29,2.99,.44,4.48-2.78-.76-3.29-4.26-6.07-5.03Z"/>
  <path class="uuid-0f094053-44cf-4567-bae5-34ea91d8af95" d="M198.56,79.38c-.21-.05-.41-.1-.61-.15-.21-1.07-.59-2.03-1.55-2.65,.09-.92,.18-1.83,.26-2.75,2.05,.21,1.71,2.7,3.25,3.39,.05,.65,.1,1.29,.14,1.94-.5,.07-1,.15-1.49,.22Z"/>
  <path class="uuid-f5f0d29c-3e8e-4d00-8226-d1f28900b09c" d="M199.91,77.21c-1.54-.69-1.2-3.18-3.25-3.39,0,0-.24,.11-.24,.11,.07-.48,.13-.95,.19-1.43,.24,0,.49,0,.73,0,.92,.26,1.85,.53,2.77,.79,.16,.19,.32,.38,.48,.57,0,1.16,.21,2.37-.68,3.35Z"/>
  <path class="uuid-f0995c3e-2bc5-4abc-88ea-c707d0212998" d="M198.56,79.38c.5-.07,1-.15,1.49-.22-.01,.46-.03,.92-.04,1.38-.75-.05-1.21-.47-1.45-1.16Z"/>
  <path class="uuid-766016df-6c5a-4e75-afbd-a6d746a522e6" d="M206.47,103.53c-.14-1.49-.29-2.98-.43-4.48,2.71-.04,3.59,1.33,3.42,3.96-.42,6.38,.51,12.8-.47,19.17-1.97,.13-3.13-.63-3.02-2.76,.66-.74,.73-1.67,.85-2.59,1.78-2.44,1.76-9.81-.04-12.11-.1-.4-.2-.79-.3-1.19Z"/>
  <path class="uuid-766016df-6c5a-4e75-afbd-a6d746a522e6" d="M171.22,34.72c-.99-2.01-4.66-.49-4.8-3.62,1.56-.05,3.11-.12,4.67-.16,.55-.01,1.13-.05,1.66,.06,.52,.11,1.43,.41,1.43,.6-.13,4.59,8.11,3.02,6.38,8.71-2.23,.18-3.71-1.05-4.89-2.71-.78-1.1-1.53-2.14-3.07-2.07-.46-.27-.92-.54-1.38-.81Z"/>
  <path class="uuid-f5f0d29c-3e8e-4d00-8226-d1f28900b09c" d="M172.59,35.53c1.54-.07,2.29,.97,3.07,2.07,1.18,1.66,2.66,2.89,4.89,2.71,.42,.22,.84,.44,1.26,.66-.22,1.58,1.08,3.1,.18,4.7-.41-.03-.82-.06-1.24-.09-.27-.45-.55-.91-.82-1.36,0-1.45-1.16-1.91-2.1-2.67-2.08-1.69-4.49-3.16-5.24-6.02Z"/>
  <path class="uuid-766016df-6c5a-4e75-afbd-a6d746a522e6" d="M181.99,45.67c.9-1.6-.4-3.12-.18-4.7,2.62-.35,3.98,.52,3.79,3.43-.11,1.75,.22,3.54,.35,5.3-2.24,.39-2.53-1.97-3.92-2.77-.01-.42-.02-.84-.03-1.26Z"/>
  <path class="uuid-766016df-6c5a-4e75-afbd-a6d746a522e6" d="M165.26,29.49c-3.28,.62-2.64-1.82-2.83-3.62,2.59-.09,2.98,1.56,2.83,3.62Z"/>
  <path class="uuid-766016df-6c5a-4e75-afbd-a6d746a522e6" d="M44.35,34.56c-.25,.11-.5,.22-.75,.32-1.1,.24-2.2,.48-3.3,.72l-.04-.05q.73-4.63,5.51-4.61c1.09,0,2.18,0,3.27,.01-.02,3.2-3.58,1.81-4.68,3.61Z"/>
  <path class="uuid-766016df-6c5a-4e75-afbd-a6d746a522e6" d="M40.3,38.29c-.67,.68-1.33,1.35-2,2.03-1.16,0-2.31,0-3.47,0q.28-4.87,5.43-4.76s.04,.05,.04,.05c0,.89,0,1.79,0,2.68Z"/>
  <path class="uuid-766016df-6c5a-4e75-afbd-a6d746a522e6" d="M32.27,49.73c-.47,0-.94-.02-1.41-.03,.01-1.75,.13-3.51,.02-5.26-.16-2.49,.82-3.75,3.39-3.58-.12,1.84-1.84,3.43-.85,5.44-.02,.43-.05,.85-.07,1.28-.9,.44-1.12,1.22-1.08,2.13h0Z"/>
  <path class="uuid-f5f0d29c-3e8e-4d00-8226-d1f28900b09c" d="M33.43,46.31c-.99-2.01,.73-3.6,.85-5.44,.18-.18,.37-.37,.55-.55,1.16,0,2.31,0,3.47,0-1.03,2.48-3.94,3.43-4.87,6Z"/>
  <path class="uuid-766016df-6c5a-4e75-afbd-a6d746a522e6" d="M191.94,54.63c3.02-.48,4.32,.77,4.12,3.85-.12,1.75,.1,3.53,.17,5.29-3.88-1.41-4.47-2.66-4.29-9.14Z"/>
  <path class="uuid-0f094053-44cf-4567-bae5-34ea91d8af95" d="M183.75,53.94c-.95-.13-1.73-.5-2.08-1.47,.1-.73,.19-1.45,.28-2.18,4.68,2.28,8.01,5.66,8.97,10.98-1.87-1.07-3.27-2.45-3.89-4.64-.43-1.52-1.42-2.73-3.28-2.7Z"/>
  <path class="uuid-f0995c3e-2bc5-4abc-88ea-c707d0212998" d="M183.75,53.94c1.86-.04,2.85,1.18,3.28,2.7,.62,2.19,2.02,3.57,3.89,4.64,.06,.39,.12,.78,.18,1.17-.7,1.12,.39,2.31-.12,3.43-2.41-3.98-4.82-7.96-7.23-11.94Z"/>
  <path class="uuid-0f094053-44cf-4567-bae5-34ea91d8af95" d="M190.98,65.88c.51-1.13-.58-2.31,.12-3.43,1.11,2.6,3.98,3.92,4.9,6.66-.09,.08-.19,.17-.28,.25-1.55-.73-3.11-1.45-4.66-2.18-.03-.43-.06-.87-.08-1.3Z"/>
  <path class="uuid-f0995c3e-2bc5-4abc-88ea-c707d0212998" d="M181.95,50.3c-.09,.73-.19,1.45-.28,2.18-1.65-.95-1.72-2.55-1.76-4.18,.55,.08,1.1,.17,1.65,.25,.13,.58,.26,1.17,.39,1.75Z"/>
  <path class="uuid-0f094053-44cf-4567-bae5-34ea91d8af95" d="M181.56,48.55c-.55-.08-1.1-.17-1.65-.25-.05-.66-.1-1.31-.16-1.97,.33-.25,.66-.5,1-.75,.41,.03,.82,.06,1.24,.09,0,.42,.02,.84,.03,1.26-.15,.54-.31,1.08-.46,1.61Z"/>
  <path class="uuid-0f094053-44cf-4567-bae5-34ea91d8af95" d="M197.35,72.5c-.24,0-.49,0-.73,0-.8-.91-.62-2.09-.89-3.14,.09-.08,.19-.17,.28-.25,.4,.48,.8,.96,1.2,1.43,.05,.65,.09,1.3,.14,1.96Z"/>
  <path class="uuid-766016df-6c5a-4e75-afbd-a6d746a522e6" d="M24.17,55.35c-.36,2.94-.13,6.14-3.38,7.84,0-1.45,.1-2.91-.04-4.35-.26-2.61,.8-3.78,3.42-3.49Z"/>
  <path class="uuid-f0995c3e-2bc5-4abc-88ea-c707d0212998" d="M49.63,180.61c1.14-.14,2.41-.24,3.13,.72,2.01,2.66,4.52,4.36,7.53,5.86,1.86,.93,3.36,2.27,5.62,2.15,1.4-.07,3.07,.39,3.29,1.79,.67,4.3,4.6,3.83,7.16,5.43,4.74,2.96,9.95,2.5,15.13,2.85,2.94,.2,6.44,.21,7.72,4.05,.11,.32,.68,.62,1.09,.7,4.75,.89,9.53,.73,14.29,.11,.45-.06,1.06-.59,1.21-1.03,1.49-4.36,5.44-4.85,8.79-4.42,6.76,.86,12.24-2.53,18.21-4.29,1.02-.3,1.6-1.14,2.23-1.95,1.21-1.56,2.76-2.58,4.8-2.67,4.43-.21,7.33-3.06,9.87-6.14,1.91-2.31,3.98-3.87,7.01-3.9,1.88-.02,2.96-.88,3.92-2.54,1.09-1.9,2.53-3.71,4.18-5.16,2.66-2.33,5.13-4.63,5.33-8.47,.02-.36,.43-.82,.78-1.04,4.94-3.17,7.13-8.08,8.67-13.46,.3-1.04,.85-2.49,1.65-2.8,3.01-1.18,2.86-4.27,4.34-6.25,4.07-5.41,2.51-11.73,3.7-17.57,.46-2.25,1.12-4.18,3.04-5.72,3.3-2.64,3.1-9.52-.29-11.99-1.53-1.12-2.3-2.36-2.01-4.23,1.65,1.7,2.89,3.98,5.69,4.08,.63,3.78,.27,7.58,.22,11.37-1.65,2.33-5.16,3.23-5.23,6.78,.08,.46,.17,.92,.25,1.38-.94,4.37,.52,8.95-1.17,13.25-3.49,.49-2.61,3.17-2.69,5.37,0,1.16-.14,2.29-.73,3.31-3.26,1.8-6.03,3.9-5.07,8.28-.04,.44-.08,.88-.11,1.32,0,0-.04,.06-.04,.06-.23,.14-.46,.28-.69,.42-2.97,.87-3.06,3.7-4.04,5.92-.19,.04-.37,.1-.55,.18-3.29,.46-4.24,2.89-4.8,5.66-.42,2.1-1.23,3.63-3.21,5.06-2.8,2.02-5.84,4.24-6.76,8.02,0,0,.14,.24,.14,.24-.67-.02-1.34-.04-2.02-.06-2.59-.21-5.29,.35-6.45,2.58-1.08,2.08-2.27,3.38-4.38,4.17-1.39,.52-2.43,1.58-2.7,3.17-.16,.09-.33,.14-.51,.16-6.14-.28-8.09,.78-9.53,5.21l-.03,.02c-2.4-.14-5.24,.15-6.72,1.49-3.87,3.51-8.28,2.22-12.53,2.48-1.58,.1-3.08,.4-4.57,.89-2.19,.72-4.23,1.57-4.36,4.35-.38,.12-.75,.24-1.13,.36-4.78-.07-9.55-.18-14.33-.17-1.92,0-3.4-.41-4.51-2.16-1.49-2.35-3.86-3.23-6.58-3.25-2.89-.02-5.78-.02-8.67-.04-1.11-.01-2.35,.14-3.17-.73-2.51-2.7-5.88-2.79-9.15-3.26,0,0-.04-.04-.04-.04-1.58-4.67-2.26-5.1-7.38-4.71-.63-.1-1.27-.19-1.9-.29-.47-1.17-1.29-2.3-2.33-2.71-4.03-1.6-5.44-5.83-8.61-8.24Z"/>
  <path class="uuid-0f094053-44cf-4567-bae5-34ea91d8af95" d="M69.89,196.59c3.27,.47,6.64,.56,9.15,3.26,.81,.87,2.06,.72,3.17,.73,2.89,.03,5.78,.03,8.67,.04,2.72,.02,5.09,.9,6.58,3.25,1.11,1.75,2.6,2.16,4.51,2.16,4.78-.01,9.55,.11,14.33,.17-.74,1.1-1.89,1.03-3,1.03-3.77,.02-7.55,.03-11.32,0-3.01-.03-5.7-.87-7.67-3.32-1.22-1.52-2.82-1.97-4.71-1.97-4.32,0-8.67,.33-12.91-.87-1.97-1.94-5.11-2.11-6.8-4.48Z"/>
  <path class="uuid-0f094053-44cf-4567-bae5-34ea91d8af95" d="M117.43,205.84c.12-2.78,2.17-3.63,4.36-4.35,1.49-.49,2.99-.8,4.57-.89,4.26-.26,8.66,1.02,12.53-2.48,1.47-1.34,4.32-1.63,6.72-1.49-.2,1.62-1.94,1.13-2.71,1.98-1.15,1.2-3.19,.96-4.13,2.51-4.35,1.36-8.83,.66-13.26,.92-.75,.02-1.22,.44-1.51,1.1-.21,.01-.41,.06-.6,.14-1.75,.57-3.01,1.76-4.12,3.16-.68,.02-1.38,.09-1.85-.58Z"/>
  <path class="uuid-f5f0d29c-3e8e-4d00-8226-d1f28900b09c" d="M119.27,206.42c1.11-1.4,2.37-2.6,4.12-3.16,.04,.75,.08,1.5,.12,2.25-.09,.57-.4,.97-.93,1.21-1.11-.1-2.21-.19-3.32-.29Z"/>
  <path class="uuid-0f094053-44cf-4567-bae5-34ea91d8af95" d="M95.06,209.4c-1.21-.6-1.21-1.91-1.69-2.94,2.18,.05,1.6,1.69,1.69,2.94Z"/>
  <path class="uuid-766016df-6c5a-4e75-afbd-a6d746a522e6" d="M49.69,184.55c-2.61,2.45-5.84,.93-8.76,1.36-.18-1.13-.35-2.26-.53-3.38,1.01-.57,2.12-.68,3.25-.66,.19,.07,.39,.12,.58,.17,.3,.72,.82,1.07,1.61,.93,1.39,.26,3.13-.31,3.84,1.59Z"/>
  <path class="uuid-766016df-6c5a-4e75-afbd-a6d746a522e6" d="M38.77,180.82c-3.31,.39-4.22-1.42-3.97-4.31,1.39,0,2.78-.02,4.17-.03,.28,.41,.56,.82,.84,1.23-.14,1.11-.25,2.22-1.04,3.11Z"/>
  <path class="uuid-766016df-6c5a-4e75-afbd-a6d746a522e6" d="M33.57,175.28c-2.14,.06-2.87-1.01-2.61-3.07,.21-1.6,.2-3.23,.29-4.85,.32-.3,.63-.59,.95-.89,.75,2.13,.38,4.52,1.51,6.57-.05,.75-.1,1.5-.14,2.25Z"/>
  <path class="uuid-f5f0d29c-3e8e-4d00-8226-d1f28900b09c" d="M38.77,180.82c.79-.89,.9-2,1.04-3.11,1.63,1.06,2.76,2.59,3.85,4.16-1.13-.02-2.24,.09-3.25,.66-.75-.37-1.28-.96-1.63-1.71Z"/>
  <path class="uuid-f5f0d29c-3e8e-4d00-8226-d1f28900b09c" d="M33.57,175.28c.05-.75,.1-1.5,.14-2.25,1.82,1.05,3.8,1.85,5.26,3.44-1.39,0-2.78,.02-4.17,.03-.41-.41-.82-.81-1.22-1.22Z"/>
  <path class="uuid-f5f0d29c-3e8e-4d00-8226-d1f28900b09c" d="M32.21,166.47c-.31,.3-.63,.59-.94,.89-.57-.46-1.13-.92-1.7-1.38,.05-.78,.1-1.57,.15-2.35,1.31,.53,1.9,1.68,2.49,2.84Z"/>
  <path class="uuid-f5f0d29c-3e8e-4d00-8226-d1f28900b09c" d="M138.76,201.11c.95-1.55,2.98-1.3,4.13-2.51,.03,.58,.06,1.16,.1,1.75-.2,.57-.62,.87-1.18,1.01-1.02-.08-2.03-.16-3.05-.25Z"/>
  <path class="uuid-f5f0d29c-3e8e-4d00-8226-d1f28900b09c" d="M123.99,203.12c.29-.66,.76-1.07,1.51-1.1-.2,.79-.67,1.2-1.51,1.1Z"/>
  <path class="uuid-766016df-6c5a-4e75-afbd-a6d746a522e6" d="M155.16,191.38c.18-.02,.35-.07,.51-.16,.65-.02,1.31-.03,1.96-.05,1.36,.25,2.71,.51,4.07,.76-.06,.42-.12,.84-.18,1.26-1.31,.7-1.41,2.09-1.89,3.27-2.2,.07-4.41,.14-6.61,.21-.38-1.32-.54-2.65,.06-3.96,.88-.15,1.78-.28,2.08-1.34Z"/>
  <path class="uuid-0f094053-44cf-4567-bae5-34ea91d8af95" d="M171.08,181.11c.92-3.78,3.96-6,6.76-8.02,1.98-1.43,2.79-2.96,3.21-5.06,.56-2.77,1.51-5.21,4.8-5.66-.16,1.84-1.93,2.57-2.72,3.98-1.2,1.63-1.32,3.52-1.28,5.44-1.77,1.58-3.53,3.17-5.3,4.75-.23,.23-.45,.46-.68,.68-1.56,.95-2.3,2.6-3.39,3.96-.46-.02-.93-.04-1.39-.06Z"/>
  <path class="uuid-0f094053-44cf-4567-bae5-34ea91d8af95" d="M157.63,191.18c-.65,.02-1.31,.03-1.96,.05,.27-1.59,1.31-2.65,2.7-3.17,2.11-.79,3.3-2.1,4.38-4.17,1.15-2.23,3.85-2.79,6.45-2.58-.09,.56-.18,1.13-.28,1.69-.93,.08-1.86,.15-2.62,.79-2.89,2.47-5.78,4.93-8.67,7.4Z"/>
  <path class="uuid-766016df-6c5a-4e75-afbd-a6d746a522e6" d="M166.3,183.78c.76-.64,1.69-.71,2.62-.79,1.35,.28,2.16-.2,2.29-1.63,0,0-.14-.24-.14-.24,.46,.02,.93,.04,1.39,.06,.79,1.47,2.48,3.03,.22,4.48-1.84,1.19-5.38,0-6.38-1.87Z"/>
  <path class="uuid-766016df-6c5a-4e75-afbd-a6d746a522e6" d="M175.86,177.22c.23-.23,.45-.46,.68-.68,3.27-.46,3.53,1.56,3.3,3.99-.6,.07-1.21,.13-1.81,.2-2.15-.29-2.28-1.82-2.17-3.5Z"/>
  <path class="uuid-f0995c3e-2bc5-4abc-88ea-c707d0212998" d="M14.9,120.09c2.17,.67,1.79,2.5,1.89,4.13,.26,4.27-.83,8.67,1.34,12.74-.89,0-1.78,0-2.67,0-.21-.06-.42-.08-.63-.06-.06-.23-.11-.46-.17-.68,.5-.45,.48-.87-.09-1.24,.22-3.82,.27-7.63-.1-11.44,0-.62,0-1.24,0-1.86,.15-.53,.3-1.05,.44-1.58Z"/>
  <path class="uuid-f5f0d29c-3e8e-4d00-8226-d1f28900b09c" d="M14.82,136.9c.21-.02,.42,0,.63,.06,1.85,2.41,4.23,4.55,4.06,7.99-1.59-.62-2.66-2.45-4.7-2-.06-.14-.08-.29-.05-.44,.02-1.87,.04-3.74,.06-5.61Z"/>
  <path class="uuid-f5f0d29c-3e8e-4d00-8226-d1f28900b09c" d="M14.56,134.97c.56,.38,.59,.79,.09,1.24-.41-.39-.44-.8-.09-1.24Z"/>
  <path class="uuid-766016df-6c5a-4e75-afbd-a6d746a522e6" d="M181.84,171.78c-.04-1.92,.08-3.81,1.28-5.44,1.67,.18,2.18,1.23,2.14,2.76-.06,1.99-.07,3.97-.1,5.96-.9,.12-1.81,.24-2.71,.37-.71-1.13-.51-2.41-.61-3.64Z"/>
  <path class="uuid-0f094053-44cf-4567-bae5-34ea91d8af95" d="M186.39,162.19c.98-2.22,1.08-5.05,4.04-5.92-.59,2.49-.83,5.22-4.04,5.92Z"/>
  <path class="uuid-0f094053-44cf-4567-bae5-34ea91d8af95" d="M191.13,155.85s.04-.06,.04-.06c.21,.06,.37,.18,.5,.36-.2-.07-.38-.17-.54-.3Z"/>
  <path class="uuid-766016df-6c5a-4e75-afbd-a6d746a522e6" d="M60.57,191.56c.63,.1,1.27,.19,1.9,.29,0,.25,0,.5,0,.74-.12,2.17-1.45,3.31-3.36,3.96-.66,0-1.33,0-1.99-.01-.1-.19-.17-.4-.29-.58-.65-.94-2.04-1.6-1.49-3.02,.56-1.45,2.03-.91,3.14-1.11,.7-.09,1.39-.18,2.09-.28Z"/>
  <path class="uuid-0f094053-44cf-4567-bae5-34ea91d8af95" d="M62.47,192.6c0-.25,0-.5,0-.74,5.12-.39,5.8,.04,7.38,4.71-2.78-.71-4.32-3.76-7.38-3.96Z"/>
  <path class="uuid-f5f0d29c-3e8e-4d00-8226-d1f28900b09c" d="M181.84,171.78c.11,1.23-.09,2.51,.61,3.64-1.38,1.44-.73,3.92-2.62,5.1,.23-2.43-.04-4.45-3.3-3.99,1.77-1.58,3.54-3.17,5.3-4.75Z"/>
  <path class="uuid-0f094053-44cf-4567-bae5-34ea91d8af95" d="M60.57,191.56c-.7,.09-1.39,.18-2.09,.28-3.45-1.8-5.71-5.04-8.79-7.28-.71-1.9-2.45-1.33-3.84-1.59-.35-.63-.86-.99-1.61-.93-.2-.05-.39-.1-.58-.17-1.09-1.57-2.22-3.09-3.85-4.16-.28-.41-.56-.82-.83-1.23-1.46-1.6-3.44-2.4-5.26-3.44-1.13-2.04-.76-4.44-1.51-6.57-.59-1.16-1.18-2.31-2.49-2.84-.46-.45-.93-.9-1.39-1.34-1.38-1.52-2.11-3.61-4.04-4.66-.46-1.33-.92-2.67-1.38-4-.22-1.51-1.19-2.32-2.56-2.77-.28-1.97-.57-3.94-.85-5.9,.17-3.44-2.21-5.58-4.06-7.99,.89,0,1.78,0,2.67,0,.66,.23,1.32,.46,1.98,.69,.47,3.65,.96,7.22,3.59,10.2,.97,1.09,1.24,2.84,1.68,4.33,.36,1.19,.52,2.63,1.59,3.24,3.25,1.86,3.44,6.23,6.81,7.98,.54,.28,.88,1.34,.93,2.07,.43,6.14,5.38,8.63,9.42,11.87,.09,.6,.18,1.21,.27,1.82,.17,1.15,.43,2.16,1.94,1.31,1.1,.05,2.2,.1,3.3,.15,3.17,2.41,4.59,6.64,8.61,8.24,1.04,.41,1.85,1.54,2.33,2.71Z"/>
  <path class="uuid-f5f0d29c-3e8e-4d00-8226-d1f28900b09c" d="M20.36,150.85c1.36,.45,2.34,1.26,2.56,2.77-.71,.02-1.42,.04-2.13,.06-.21-.61-.43-1.23-.64-1.84,.07-.33,.14-.66,.22-.99Z"/>
  <path class="uuid-f5f0d29c-3e8e-4d00-8226-d1f28900b09c" d="M153.08,192.73c-.6,1.31-.44,2.63-.06,3.96-.62,.45-1.24,.9-1.86,1.35-1.4-.4-2.8-.8-4.21-1.2,1.42-2.29,3.21-4.03,6.13-4.1Z"/>
  <path class="uuid-766016df-6c5a-4e75-afbd-a6d746a522e6" d="M146.95,196.83c1.4,.4,2.8,.8,4.21,1.2-.11,1.63-1.07,2.24-2.61,2.23-1.85,0-3.7,.05-5.55,.09-.03-.58-.06-1.16-.1-1.75,.77-.85,2.51-.36,2.71-1.98,0,0,.03-.02,.03-.02,.44,.08,.88,.15,1.32,.23Z"/>
  <path class="uuid-0f094053-44cf-4567-bae5-34ea91d8af95" d="M191.28,154.47c-.96-4.38,1.81-6.48,5.07-8.28,.02,.89,.05,1.77,.07,2.66-1.46,1.21-2.98,2.37-3.87,4.12-.42,.5-.85,1-1.27,1.5Z"/>
  <path class="uuid-0f094053-44cf-4567-bae5-34ea91d8af95" d="M197.09,142.88c.08-2.2-.8-4.88,2.69-5.37,.04,.24,.08,.48,.12,.72-1.02,1.41-.63,3.4-1.97,4.67-.28,0-.56-.02-.84-.03Z"/>
  <path class="uuid-766016df-6c5a-4e75-afbd-a6d746a522e6" d="M20.78,153.69c.71-.02,1.42-.04,2.13-.06,.46,1.33,.92,2.67,1.38,4,.05,2.39-1.35,2.99-3.42,2.75-.03-2.23-.06-4.46-.09-6.69Z"/>
  <path class="uuid-766016df-6c5a-4e75-afbd-a6d746a522e6" d="M199.9,138.23c-.04-.24-.08-.48-.12-.72,1.69-4.3,.24-8.88,1.17-13.25,1.76-.24,3.51-2.2,5.28-.02-.14,5.85,.25,11.71-.59,17.54-2.77,.21-5.11-.27-5.74-3.54Z"/>
  <path class="uuid-f0995c3e-2bc5-4abc-88ea-c707d0212998" d="M136.44,19.97c-5.77-3.02-12.22-1.09-18.22-2.46-1.42-.32-2.92-.3-3.42-2.06,5.48,1.05,11.01,.48,16.52,.62,2.66,.07,4.87,.68,5.12,3.9Z"/>
  <path class="uuid-f0995c3e-2bc5-4abc-88ea-c707d0212998" d="M170.61,37.37c-6.08,.33-10.48-3.05-14.76-6.7-1.2-1.02-1.67-2.34-1.33-3.9,2.06,2.77,5.24,4.28,7.58,6.73,1.38,1.44,2.99,2.3,5.07,1.76,.89,0,1.78,0,2.67,0,.25,.71,.51,1.41,.77,2.11Z"/>
  <path class="uuid-f0995c3e-2bc5-4abc-88ea-c707d0212998" d="M112.79,14.1c-2.73-1.11-5.51-.27-8.27-.17,.08-.8,.17-1.6,.25-2.4,2.69,.1,5.44-.65,8.06,.52-.01,.68-.03,1.37-.05,2.05Z"/>
  <path class="uuid-f0995c3e-2bc5-4abc-88ea-c707d0212998" d="M153.87,26.6c-2.21,.57-4.34,.13-6.45-.48-1.38-.4-2.36-1.16-2.12-2.81,1.58,1.05,3.29,1.54,5.2,1.63,1.28,.06,2.6,.4,3.37,1.67Z"/>
  <path class="uuid-f0995c3e-2bc5-4abc-88ea-c707d0212998" d="M145.07,22.67c-2.06,.11-4.28,.7-5.5-1.77,1.92,.31,4.1-.16,5.5,1.77Z"/>
  <path class="uuid-f0995c3e-2bc5-4abc-88ea-c707d0212998" d="M100.04,15.53c-.87,1.84-2.61,1.86-4.24,1.92-2.97,.09-5.95,.11-8.92,.02-2.67-.08-5.26,.08-7.69,1.31,.44-2.46,2.29-2.66,4.28-2.71,5.53-.11,11.08,.35,16.58-.55Z"/>
  <path class="uuid-0f094053-44cf-4567-bae5-34ea91d8af95" d="M170.61,37.37c-.26-.7-.51-1.41-.77-2.11,.46-.18,.91-.35,1.37-.53,.46,.27,.92,.54,1.38,.81,.76,2.87,3.16,4.33,5.25,6.02,.94,.76,2.1,1.22,2.1,2.67-2.32,.2-3.39-2.21-5.43-2.59-.24-.22-.47-.44-.71-.66-.39-1.75-1.55-2.8-3.14-3.46,0,0-.05-.14-.05-.14Z"/>
  <path class="uuid-f5f0d29c-3e8e-4d00-8226-d1f28900b09c" d="M40.3,38.29c0-.89,0-1.79,0-2.68,1.1-.24,2.2-.48,3.3-.72-.68,1.55-1.38,3.06-3.3,3.4Z"/>
  <path class="uuid-f5f0d29c-3e8e-4d00-8226-d1f28900b09c" d="M32.28,49.72c-.04-.91,.18-1.7,1.08-2.13,.25,1.02,0,1.78-1.08,2.13Z"/>
  <path class="uuid-f0995c3e-2bc5-4abc-88ea-c707d0212998" d="M11.44,113.44c1.74,1.16,2.28,3.11,3.15,4.84-1.04-.28-2.08-.56-3.13-.85-.4-1.33-.26-2.66-.02-4Z"/>
  <path class="uuid-0f094053-44cf-4567-bae5-34ea91d8af95" d="M11.46,117.44c1.04,.28,2.09,.56,3.13,.85,.1,.6,.2,1.2,.3,1.8-.15,.53-.29,1.05-.44,1.58-1.31-1.19-2.71-2.31-2.99-4.22Z"/>
  <path class="uuid-f0995c3e-2bc5-4abc-88ea-c707d0212998" d="M14.87,102.71c.99,3.14-1.84,3.04-3.41,4.01-.03-.67-.05-1.33-.08-2,1.49-.11,2.44-1.15,3.48-2.02Z"/>
  <path class="uuid-0f094053-44cf-4567-bae5-34ea91d8af95" d="M200.71,122.87c.08-3.55,3.58-4.45,5.24-6.78,.29,.24,.58,.49,.87,.73-.12,.92-.19,1.85-.85,2.59-2.27,.37-3.05,3-5.26,3.46Z"/>
  <path class="uuid-8c3b0d1e-8e93-4341-982c-460a86a8535e" d="M30.85,142.35c-.2-.03-.41-.06-.61-.1,0-4.69,.03-9.37,.02-14.06-.01-4.88-.48-5.34-5.36-5.4-1.02-1.24-.69-2.72-.74-4.13-.21-6.39,.42-12.79-.4-19.16,6.5-2.07,6.4-2.07,6.54-9.18,.07-3.84-.75-7.76,.75-11.51,.4-.03,.81-.06,1.21-.09,3.22,.15,2.07-2.42,1.96-3.72-.33-3.69,.98-5.63,4.76-5.7-.81,2.94-.75,5.95-.71,8.96,.05,3.86,1.34,5.95,5.07,6.09,4.25,.16,5.26,1.99,5.08,5.83-.17,3.7,4,8.6,7.24,9.15,3.36,.57,3.99,1.67,2.7,5.06-.47,1.24-.97,2.34,.7,3.01h0c.19,.74,.47,1.28,1.33,.69,.44,.01,.89,.02,1.33,.04,.24,2.29-.83,5.2,2.77,5.93,.42,0,.85-.01,1.27-.02,.69,1.1,1.21,2.23,1.47,3.56,.27,1.4,.13,3.13,1.84,3.9,.01,.23,.03,.46,.04,.68,0,2.35,1.54,2.73,3.43,2.67,0,5.37,0,10.74,0,16.1-.95,.1-1.66,.56-2.1,1.42-1.98,0-3.96,0-5.94-.01-2.08,.27-2.75,1.66-2.75,3.53,0,5.89,0,11.79,0,17.68,0,1.73,.64,3.28,2.51,3.37,3.4,.16,6.86,.77,10.21-.46,.89,.02,1.78,.03,2.67,.05,.61,2.22,2.45,1.92,4.08,1.92,10.45,.01,20.89,0,31.34,0,.31,1.75-.17,4.13,2.76,3.93,2.52-.18,2.78-2.1,2.79-4.1,0-.33,0-.66,0-.99,4.74-.39,9.48-.3,14.22-.04,0,.77-.02,1.53,.03,2.3,.1,1.47,.76,2.58,2.35,2.66,1.8,.09,2.09-1.22,2.15-2.65,.04-.98,.12-1.96,.19-2.95,1.7-.62,1.82-2.04,1.82-3.55,0-5.55-.02-11.1,0-16.65,.01-2.93-1.26-4.52-4.29-4.81-2.4-.22-4.87-.51-6.64-2.52-.27-2.12-.29-4.25,.08-6.36,3.25-.16,5.64,1.5,8.11,3.39,2.53,1.94,6.95,1.71,7.02,6.37,3.16,.63,3.92,4.88,7.54,4.95,.65,.01,1.52,1.03,1.87,1.78,1.29,2.79,3.82,4.36,6.05,6.1,3.64,2.85,5.04,2.58,8.79-.4,.35-.28,.71-.57,1.11-.75,4-1.82,5.46-5.66,7.25-9.21,1.4-2.77,.47-6.87,4.69-8.05,.33-.09,.6-.93,.65-1.45,.23-2.32,.8-4.56,.59-6.97-.24-2.73-.75-6.41,1.43-7.96,4.56-3.23,3.89-7.63,4-11.96,.05-1.79-.37-3.73-2.06-4.73-3.14-1.85-3.54-4.97-3.81-8.01-.29-3.33-.08-6.7-.08-10.05,0-1.4-.18-2.91-1.62-3.4-2.73-.92-3.33-3.27-3.62-5.49-.53-4.04-5.08-5.1-6.02-8.72-.03-.12-.4-.21-.61-.22-2.62-.12-3.04-1.89-2.89-3.97,.32-4.16-3.31-6.33-4.8-9.58-.16-.35-1.03-.65-1.48-.56-5.02,1.07-7.93-3.04-10.08-5.73-3.12-3.91-7.58-4.4-11.17-6.81-1.51-1.01-3.54-1.87-5.69-1.63-5.02,.55-10.07,1.09-13.62-3.78-.22-.31-.8-.38-1.22-.51-6.34-2.02-12.8-.99-19.23-.71-.92,.04-2.24,.6-2.63,1.32-2.27,4.13-6.23,3.71-9.94,3.93-1.55,.09-3.11-.17-4.67-.23-1.71-.07-3.16,.28-3.4,2.35-.22,1.89-1.53,2.22-3.13,2.27-1.66,.04-4.46-.58-4.79,.41-1.17,3.57-4.45,4.58-6.62,6.86-1.18,1.24-1.99,2.07-3.66,2.17-3.99,.22-7.6,1.04-8.04,6.03-4.34-1.07-8.19-.79-10.58,3.74-.23,.43-.89,.63-1.35,.94-.82-1.58-.16-2.97,1.1-3.66,2.7-1.48,3.1-3.75,2.82-6.43,0,0,.03-.03,.03-.03,1.64-.2,3.63,.92,4.76-1.25,.14-1.08-.05-2.29,1.2-2.91,2.76-.2,5.76,1.42,8.23-1.05,0,0,.03-.03,.03-.03,2-1.15,.94-3.92,2.74-5.18,.42-.04,.84-.08,1.25-.12,2.25-2.87,5.35-3.12,8.66-2.92,1.01,.06,2.03-.4,1.5-1.85,.18-1.13,.36-2.26,.53-3.39,5.81-.01,11.63-.07,17.44-.01,1.98,.02,3.58-.36,4.21-2.46,.55-1.83,1.82-2.28,3.59-2.26,6.71,.06,13.41,.04,20.12,.01,1.83,0,3.27,.29,3.77,2.43,.43,1.84,1.96,2.25,3.66,2.25,4.02,0,8.05,.06,12.07-.02,2.18-.04,3.76,.3,3.67,3.01-.05,1.66,1.07,2.49,2.62,2.34,3.32-.33,6.28,.25,8.64,2.8,.2,.06,.41,.11,.62,.14,2.17,1.07,1.6,3.9,3.35,5.24,0,0,.05,.05,.05,.05,2.47,2.37,5.47,.8,8.21,1.08,.39,.97,.79,1.94,1.18,2.91,1.14,2.07,3.94,.95,5.23,2.72,0,1.99,.01,3.98,.02,5.96-.05,.1-.18,.23-.15,.29,1.28,2.81,4.35,4.41,5.12,7.56,4.27-.14,3.93,2.83,3.91,5.69-.01,1.59-.43,3.57,2.16,3.71,.85,.03,1.7,.07,2.55,.1,.64,1.36,.68,2.8,.67,4.26-.02,3.91,.02,7.82,0,11.73-.01,2.09,.43,3.83,2.86,4.2,1.86,.28,1.84,1.66,1.84,3.03,0,5.59-.02,11.18,.01,16.76,0,1.6-.28,2.83-2.13,3.23-2.16,.47-2.62,2.09-2.59,4.08,.06,4.13,.01,8.27,0,12.4,0,1.51-.07,3.11-1.98,3.36-3.1,.41-3.64,2.33-3.45,5,.11,1.63,.47,4.13-1.36,4.43-3.7,.6-4.48,3.97-6.74,5.87-1.37,2.61-.12,5.6-1.22,8.25-.96,.01-1.94-.03-2.69,.73-.62,.04-1.24,.07-1.87,.1-2.71,1.1-.98,3.47-1.49,5.2-2.52,.19-5.03,.38-7.55,.58-.74,.21-1.13,.6-.74,1.41,0,.4-.01,.79-.01,1.19-1.94,.27-4.44-.12-4.99,2.43-.74,3.46-2.9,4.05-5.9,3.8-2.04-.17-3.98,.28-4.17,2.78-.17,2.36-1.57,2.6-3.43,2.58-3.69-.04-7.37,.07-11.06-.04-2.24-.06-3.97,.64-5,2.64-.76,1.47-1.82,2.09-3.47,2.07-6.92-.04-13.85-.02-20.77-.02-1.14,0-2.48-.01-2.85-1.27-1.05-3.62-3.84-3.34-6.7-3.44-5.11-.18-10.27,.77-15.32-.61-.03-.86-.05-1.72-.08-2.58-.31-2.74-2.46-1.95-4.11-2.15-1.59-.19-4.13,.7-4.52-1.03-.64-2.88-2.83-4.2-4.28-6.25-1.55-2.2-3.24-2.76-5.57-2.74-1.67,.02-3.33,0-5,0-.02-.64-.03-1.28-.05-1.92,.54-4.69-2.91-3.17-5.26-3.38,0,0-.04-.04-.03-.04-.36-2.73,1.19-5.71-1.08-8.19-1.27-.16-2.55-.33-2.93-1.88-.1-1.91-.12-4.04-2.45-4.55-2.11-.46-2.33-1.77-2.22-3.43,.21-3.36-1.21-5.28-4.69-5.43Zm18.14,17.21c.03,1.72,.09,3.48,2.49,3.41,2.23-.07,2.53-1.91,2.72-3.52,.22-1.86-.91-2.9-2.72-2.98-2.12-.09-2.5,1.37-2.49,3.09Zm0-29.07c0,1.74,.46,3.15,2.57,3,1.93-.14,2.62-1.57,2.64-3.22,.02-1.9-1.27-2.69-3.05-2.72-2.06-.04-2.21,1.4-2.17,2.94Zm42.15,46.62c1.75-.31,3.41-.81,3.4-2.95-.01-2.34-1.78-2.93-3.67-2.9-1.72,.03-3.57,.53-3.4,2.73,.15,2.02,1.68,2.98,3.67,3.11ZM41.7,93.44c-1.81,.18-2.11,1.42-2.03,2.86,.07,1.47,.68,2.74,2.29,2.76,1.62,.02,2.27-1.24,2.27-2.72,0-1.66-.81-2.71-2.53-2.9Z"/>
  <path class="uuid-15feb99b-daed-4272-bc73-180c85e5bfbd" d="M73.12,185.9c5.06,1.38,10.22,.44,15.32,.61,2.87,.1,5.65-.18,6.7,3.44,.37,1.26,1.71,1.27,2.85,1.27,6.92,0,13.85-.03,20.77,.02,1.65,.01,2.72-.61,3.47-2.07,1.03-2,2.76-2.7,5-2.64,3.68,.1,7.37,0,11.06,.04,1.85,.02,3.26-.22,3.43-2.58,.18-2.5,2.12-2.95,4.17-2.78,2.99,.25,5.15-.34,5.9-3.8,.55-2.54,3.05-2.16,4.99-2.43-1.64,2.43-3.51,4.66-4.92,7.3-.87,1.63-3.29,.88-5.03,.86-2.21-.02-3.91,.16-4.1,3.02-.13,1.89-1.77,2.37-3.48,2.37-3.9,0-7.8,.03-11.7,0-1.64-.01-3,.1-3.69,2.05-.6,1.7-2.32,1.94-3.93,1.95-7.69,.02-15.38,.02-23.07,0-1.37,0-3.1-.13-3.54-1.41-1-2.93-3.2-2.6-5.42-2.59-4.12,.01-8.25,.04-12.37-.03-1.57-.03-3.41-.08-2.41-2.6Z"/>
  <path class="uuid-15feb99b-daed-4272-bc73-180c85e5bfbd" d="M172.35,157.52c2.27-1.89,3.04-5.26,6.74-5.87,1.83-.3,1.47-2.8,1.36-4.43-.19-2.67,.36-4.59,3.45-5,1.9-.25,1.97-1.85,1.98-3.36,0-4.13,.05-8.27,0-12.4-.03-1.99,.43-3.61,2.59-4.08,1.85-.4,2.14-1.63,2.13-3.23-.03-5.59-.01-11.18-.01-16.76,0-1.37,.02-2.75-1.84-3.03-2.43-.37-2.87-2.11-2.86-4.2,.03-3.91,0-7.82,0-11.73,0-1.46-.04-2.91-.67-4.26,2.52-1,2.59,.83,2.62,2.4,.08,4.01,.06,8.03,.03,12.04-.02,1.79,.23,3.27,2.2,4.02,1.58,.6,1.83,2.09,1.83,3.62-.01,6.35-.01,12.71,0,19.06,0,1.54-.27,3.01-1.85,3.61-1.99,.75-2.2,2.25-2.18,4.03,.04,3.9-.03,7.8,.02,11.7,.02,1.9-.58,3.46-2.57,3.7-2.59,.31-2.97,1.86-2.82,3.97,.21,3.11-.13,5.9-4.04,6.47-.73,.11-1.12,.68-1.32,1.36-.74,2.52-2.61,2.75-4.78,2.38Z"/>
  <path class="uuid-15feb99b-daed-4272-bc73-180c85e5bfbd" d="M152.95,43.7c-2.36-2.55-5.32-3.12-8.64-2.8-1.55,.15-2.67-.68-2.62-2.34,.09-2.71-1.49-3.05-3.67-3.01-4.02,.08-8.05,0-12.07,.02-1.7,0-3.23-.4-3.66-2.25-.5-2.14-1.94-2.44-3.77-2.43-6.71,.03-13.41,.05-20.12-.01-1.77-.01-3.03,.43-3.59,2.26-.63,2.09-2.23,2.48-4.21,2.46-5.81-.06-11.62,0-17.44,.01,.41-2.15,2.1-1.99,3.66-2,4.36-.02,8.71,0,13.07-.02,1.37,0,2.84,0,3.25-1.69,.52-2.15,2.04-2.36,3.84-2.36,7.59,.02,15.19,.01,22.78,0,1.62,0,3.2,.08,3.94,1.86,.77,1.87,2.25,2.24,4.07,2.21,3.57-.05,7.15,.03,10.72-.02,2.38-.03,4.26,.48,4.44,3.32,.1,1.59,1.1,1.98,2.49,2.07,1.44,.09,2.87,.3,4.3,.51,2.42,.36,3.5,1.76,3.21,4.2Z"/>
  <path class="uuid-f0995c3e-2bc5-4abc-88ea-c707d0212998" d="M44.12,177.34c-4.04-3.24-8.99-5.74-9.42-11.87-.05-.73-.39-1.79-.93-2.07-3.37-1.75-3.56-6.13-6.81-7.98-1.06-.61-1.23-2.05-1.59-3.24-.45-1.49-.72-3.24-1.68-4.33-2.64-2.97-3.12-6.55-3.59-10.2,1.38,.14,2.54,.93,2.52,2.24-.07,4.45,3.95,7.38,4.16,11.75,.05,1.12,1.11,2.34,2.18,3.24,3.2,2.72,5.81,6.25,7.32,9.88,1.49,3.57,3.75,6.15,6.15,8.85,.96,1.08,2.12,2.03,1.7,3.73Z"/>
  <path class="uuid-15feb99b-daed-4272-bc73-180c85e5bfbd" d="M49.57,171.16c1.67,0,3.33,.02,5,0,2.32-.03,4.02,.54,5.57,2.74,1.45,2.05,3.64,3.37,4.28,6.25,.39,1.74,2.93,.84,4.52,1.03,1.64,.19,3.79-.59,4.11,2.15-1.34-.05-2.68-.23-4.01-.14-3.62,.25-5.76-.62-7.76-4.44-1.57-3.01-3.97-8.01-9.65-6.34-.7,.21-2.19,.51-2.05-1.24Z"/>
  <path class="uuid-15feb99b-daed-4272-bc73-180c85e5bfbd" d="M44.25,54.35c.28,2.67-.12,4.95-2.82,6.43-1.26,.69-1.92,2.09-1.1,3.66,.03,.22,.06,.45,.09,.67l-1.42,4.18c-3.78,.07-5.09,2.01-4.76,5.7,.12,1.3,1.26,3.87-1.96,3.72,.86-1.91,.7-3.94,.65-5.94-.06-2.4,.76-4.18,3.18-4.86,1.37-.38,1.98-1.16,2.22-2.55,.5-2.88,.32-6.08,4.02-7.41,1.3-.46,.15-2.95,1.91-3.6Z"/>
  <path class="uuid-15feb99b-daed-4272-bc73-180c85e5bfbd" d="M182.67,79.05c-2.59-.14-2.17-2.13-2.16-3.71,.02-2.86,.36-5.82-3.91-5.69-.78-3.15-3.84-4.75-5.12-7.56-.03-.06,.1-.19,.15-.29,2.55,.76,5.29,1.27,5.65,4.72,.05,.43,.61,1.08,1.02,1.15,4.36,.82,4.38,4.01,4.22,7.39-.06,1.32,.09,2.65,.15,3.98Z"/>
  <path class="uuid-15feb99b-daed-4272-bc73-180c85e5bfbd" d="M30.85,142.35c3.48,.15,4.9,2.07,4.69,5.43-.1,1.65,.12,2.97,2.22,3.43,2.33,.5,2.35,2.64,2.45,4.55-1.48-.87-2.73-2-4.58-2.39-2.05-.43-2.89-2.3-2.67-4.38,.27-2.55-.34-4.76-2.11-6.63Z"/>
  <path class="uuid-15feb99b-daed-4272-bc73-180c85e5bfbd" d="M31.06,78.81c-1.5,3.75-.67,7.67-.75,11.51-.14,7.11-.04,7.11-6.54,9.18-.09-1.43,.76-2.08,2.01-2.08,2.78-.02,3.19-1.71,3.15-3.98-.07-3.87-.04-7.75,0-11.63,.01-1.44-.05-3.04,2.13-3Z"/>
  <path class="uuid-15feb99b-daed-4272-bc73-180c85e5bfbd" d="M24.91,122.79c4.88,.06,5.35,.52,5.36,5.4,.01,4.69-.01,9.37-.02,14.06-1.58-.55-1.3-1.91-1.32-3.1-.03-3.35-.11-6.71,.02-10.05,.1-2.45-.2-4.43-3.05-5.08-.4-.09-.66-.81-.99-1.23Z"/>
  <path class="uuid-15feb99b-daed-4272-bc73-180c85e5bfbd" d="M72.65,39c.53,1.45-.49,1.91-1.5,1.85-3.32-.2-6.41,.05-8.66,2.92,.31-3.71,1.29-4.7,4.86-4.78,1.77-.04,3.54,0,5.31,.02Z"/>
  <path class="uuid-0f094053-44cf-4567-bae5-34ea91d8af95" d="M205.72,104.73c-2.8-.11-4.04-2.38-5.69-4.08,.12-.71,.24-1.43,.36-2.14,2.78,.76,3.3,4.26,6.07,5.02,.1,.4,.2,.8,.3,1.19-.35,0-.7,0-1.05,0Z"/>
  <path class="uuid-f0995c3e-2bc5-4abc-88ea-c707d0212998" d="M195.72,69.36c.27,1.06,.09,2.24,.89,3.14-.06,.48-.13,.95-.19,1.43-1.61-1.86-2.78-4.14-5.19-5.25-.48-.22-.48-.95-.16-1.5,1.55,.73,3.1,1.45,4.66,2.18Z"/>
  <path class="uuid-15feb99b-daed-4272-bc73-180c85e5bfbd" d="M58.46,49.1c-2.47,2.48-5.46,.85-8.23,1.05,2.52-2.12,5.49-.67,8.23-1.05Z"/>
  <path class="uuid-15feb99b-daed-4272-bc73-180c85e5bfbd" d="M165.2,50.21c-2.75-.28-5.74,1.29-8.21-1.08,2.74,.35,5.72-1.16,8.21,1.08Z"/>
  <path class="uuid-15feb99b-daed-4272-bc73-180c85e5bfbd" d="M43.16,157.63c2.27,2.48,.71,5.46,1.08,8.19-2.34-2.47-.81-5.45-1.08-8.19Z"/>
  <path class="uuid-f0995c3e-2bc5-4abc-88ea-c707d0212998" d="M174.51,41.63c2.04,.38,3.11,2.79,5.43,2.59,.27,.45,.55,.9,.82,1.36-.33,.25-.66,.5-.99,.75-1.85-1.46-4.85-1.63-5.25-4.7Z"/>
  <path class="uuid-15feb99b-daed-4272-bc73-180c85e5bfbd" d="M44.27,165.86c2.34,.21,5.79-1.31,5.26,3.38-1.03-2.25-3.92-1.61-5.26-3.38Z"/>
  <path class="uuid-15feb99b-daed-4272-bc73-180c85e5bfbd" d="M156.93,49.08c-1.76-1.34-1.18-4.17-3.35-5.24,4.62-.49,3.24,2.85,3.35,5.24Z"/>
  <path class="uuid-15feb99b-daed-4272-bc73-180c85e5bfbd" d="M171.61,55.84c-1.3-1.77-4.09-.64-5.23-2.72,2,.41,5.22-1.53,5.23,2.72Z"/>
  <path class="uuid-15feb99b-daed-4272-bc73-180c85e5bfbd" d="M61.23,43.89c-1.8,1.26-.74,4.03-2.74,5.18,.35-2.03-1.54-5.23,2.74-5.18Z"/>
  <path class="uuid-15feb99b-daed-4272-bc73-180c85e5bfbd" d="M165.08,171.8c.51-1.73-1.22-4.1,1.49-5.2-.62,1.7,.86,4-1.49,5.2Z"/>
  <path class="uuid-15feb99b-daed-4272-bc73-180c85e5bfbd" d="M49.04,53.07c-1.12,2.17-3.11,1.05-4.76,1.25,1.15-2.07,3.13-.98,4.76-1.25Z"/>
  <path class="uuid-f0995c3e-2bc5-4abc-88ea-c707d0212998" d="M170.66,37.51c1.59,.66,2.76,1.71,3.14,3.46-1.87-.41-3.06-1.43-3.14-3.46Z"/>
  <path class="uuid-f0995c3e-2bc5-4abc-88ea-c707d0212998" d="M196.4,76.57c.96,.62,1.34,1.59,1.55,2.65-1.5-.31-2.31-1.02-1.55-2.65Z"/>
  <path class="uuid-15feb99b-daed-4272-bc73-180c85e5bfbd" d="M168.44,166.5c.76-.76,1.73-.71,2.69-.73-.56,1.51-1.55,1.41-2.69,.73Z"/>
  <path class="uuid-f0995c3e-2bc5-4abc-88ea-c707d0212998" d="M46.33,180.46c-1.51,.85-1.78-.16-1.94-1.31,.86,.11,1.51,.56,1.94,1.31Z"/>
  <path class="uuid-15feb99b-daed-4272-bc73-180c85e5bfbd" d="M156.8,173.79c-.4-.81,0-1.2,.74-1.41,.01,.61-.2,1.09-.74,1.41Z"/>
  <path class="uuid-f5f0d29c-3e8e-4d00-8226-d1f28900b09c" d="M205.72,104.73c.35,0,.7,0,1.05,0,1.8,2.3,1.82,9.67,.04,12.11-.29-.24-.58-.49-.87-.73,.05-3.79,.41-7.59-.22-11.37Z"/>
  <path class="uuid-0f094053-44cf-4567-bae5-34ea91d8af95" d="M146.95,196.83c-.44-.08-.88-.15-1.32-.23,1.44-4.43,3.39-5.5,9.53-5.21-.3,1.06-1.2,1.19-2.08,1.34-2.91,.07-4.7,1.81-6.13,4.1Z"/>
  <path class="uuid-f5f0d29c-3e8e-4d00-8226-d1f28900b09c" d="M171.22,181.36c-.13,1.43-.94,1.91-2.29,1.63,.09-.57,.18-1.13,.28-1.69,.67,.02,1.35,.04,2.02,.06Z"/>
  <path class="uuid-f5f0d29c-3e8e-4d00-8226-d1f28900b09c" d="M44.24,182.03c.75-.06,1.26,.3,1.61,.93-.79,.14-1.31-.21-1.61-.93Z"/>
  <path class="uuid-15feb99b-daed-4272-bc73-180c85e5bfbd" d="M52.25,59.76c.44-4.99,4.05-5.81,8.04-6.03,1.67-.09,2.49-.93,3.66-2.17,2.17-2.28,5.45-3.29,6.62-6.86,.33-.99,3.12-.37,4.79-.41,1.6-.04,2.9-.37,3.13-2.27,.24-2.07,1.69-2.42,3.4-2.35,1.56,.06,3.12,.32,4.67,.23,3.7-.23,7.67,.2,9.94-3.93,.4-.72,1.71-1.28,2.63-1.32,6.42-.29,12.89-1.31,19.23,.71,.42,.14,1,.21,1.22,.51,3.55,4.87,8.6,4.33,13.62,3.78,2.15-.24,4.18,.62,5.69,1.63,3.59,2.41,8.06,2.9,11.17,6.81,2.15,2.69,5.06,6.8,10.08,5.73,.45-.1,1.32,.21,1.48,.56,1.49,3.25,5.11,5.41,4.8,9.58-.16,2.08,.26,3.85,2.89,3.97,.21,0,.58,.1,.61,.22,.94,3.62,5.49,4.68,6.02,8.72,.29,2.22,.89,4.57,3.62,5.49,1.45,.49,1.62,2,1.62,3.4,0,3.35-.21,6.72,.08,10.05,.27,3.04,.67,6.16,3.81,8.01,1.69,1,2.11,2.94,2.06,4.73-.11,4.34,.56,8.73-4,11.96-2.18,1.54-1.67,5.23-1.43,7.96,.21,2.41-.36,4.66-.59,6.97-.05,.52-.32,1.36-.65,1.45-4.22,1.18-3.29,5.28-4.69,8.05-1.79,3.55-3.25,7.38-7.25,9.21-.4,.18-.76,.48-1.11,.75-3.76,2.99-5.16,3.25-8.79,.4-2.22-1.74-4.76-3.32-6.05-6.1-.34-.75-1.22-1.76-1.87-1.78-3.63-.07-4.39-4.32-7.54-4.95-.08-4.66-4.49-4.42-7.02-6.37-2.46-1.89-4.86-3.55-8.1-3.38-.52-2.24-.12-4.49-.1-6.73,2.9-.95,6.22-1.22,7.34-4.89,1.5-4.88,3.1-9.7,7.77-12.65,.7-.44,1.05-1.17,1.06-1.99,.04-5.56,3.47-8.59,8.04-10.73,1.13-.53,1.34-1.37,1.2-2.46,.2-2.92,.4-5.83,.6-8.75,2.4-.38,5.28,1.23,7.08-1.69,1.05-.85,1.26-2.02,1.25-3.28-.06-6.19,.28-12.38-.35-18.56,.31-2.95-2.01-2.49-3.57-2.5-10.5-.09-21-.02-31.5-.08-1.67,0-3.01,.68-4.4,1.38-4.73-1.36-9.57-.4-14.36-.65-1.34-.61-2.77-.7-4.22-.7-5.1,0-10.19-.03-15.29-.05-.24-.46-.48-.93-.72-1.4,.86-1.13,1.01-2.4-.15-3.27-1.35-1.01-3-.86-4.43-.06-1.08,.61-1.64,1.57-.56,2.74-.1,.66-.19,1.32-.29,1.98-7.91,.02-15.81,.08-23.72,.02-2.17-.02-4.2,.22-6.02,1.47-.16,0-.32-.03-.47-.1Zm48.92-10.1c1.85,.09,2.82-.79,2.79-2.76-.03-2.45-1.85-2.85-3.63-3.02-2-.19-2.27,1.29-2.31,2.87-.05,2.12,1,3.05,3.14,2.91Zm67.45,48.98c1.74,.03,3.07-.4,3.04-2.35-.03-1.9-1.18-2.79-3-2.88-1.72-.08-2.78,.6-2.83,2.48-.05,2.02,1.01,2.82,2.8,2.76Zm-6.84,41.27c-.02,1.61,.36,2.96,2.33,2.93,1.99-.03,2.26-1.45,2.24-3.02-.01-1.48-.39-2.7-2.17-2.76-1.96-.06-2.42,1.22-2.41,2.85Zm-15.05-14.48c-.1-1.45-.91-2.31-2.29-2.4-1.57-.1-2.09,.99-2.11,2.37-.02,1.32,.26,2.55,1.88,2.6,1.68,.05,2.19-1.22,2.52-2.57Zm10.1-19.26c-.03-1.4-.87-1.98-2.14-2.04-1.43-.06-2.81,.15-2.82,2-.01,1.42,1.05,1.84,2.28,1.88,1.32,.04,2.47-.23,2.68-1.84Zm7.23,12.19c-1.24,.17-1.61,1.04-1.61,2.13,0,1.08,.35,2.09,1.62,2.09,1.26,0,1.61-1.01,1.61-2.09,0-1.08-.36-1.96-1.62-2.13Z"/>
  <path class="uuid-f2dbb76a-dfa2-427b-a24e-61c720bbe548" d="M40.42,65.12c-.03-.22-.06-.45-.09-.67,.46-.31,1.12-.51,1.35-.94,2.39-4.53,6.23-4.82,10.58-3.74,.15,.07,.3,.11,.46,.1-.55,6.91,.31,13.81,.18,20.72-.03,1.65,.52,3.25,2.85,2.27,1.69,.03,3.37,.06,5.06,.08,1.95,2.11,1.5,4.73,1.53,7.24,.02,2.46,.66,4.4,3.54,4.7,1.06,.11,2.05,.61,2.36,1.6,.74,2.33,2.6,2.79,4.62,3.12,.1,2.6,.2,5.2,.31,7.8,.25,.33,.51,.95,.75,.94,2.97-.09,4.52,1.1,4.25,4.26-.03,.4,.56,1.18,.94,1.24,3.53,.53,2.78,3.25,2.76,5.45-.03,2.51,.45,4.46,3.35,4.85,1.71,.23,2.1,1.38,2.09,2.88-.02,3.24,0,6.47,0,9.71,0,6.24,.18,5.65-5.31,5.52-3.08-.08-4.15,1.07-4.08,4.09,.16,6.69,.08,13.39,.1,20.08-.28,.03-.56,.06-.84,.1-.89-.02-1.78-.03-2.67-.05-2.54-1.33-5.27-.42-7.9-.67-1.27-.12-2.74-.12-2.71-1.78,.12-7.22-.94-14.49,.64-21.67,1.98,0,3.96,0,5.94,.01,1.45,.64,2.62,.87,2.1-1.42,0-5.37,0-10.74,0-16.1,.92-.61,1.8-1.33,2.99-1.32,2.33,.02,3.1-1.26,2.96-3.41-.09-1.56-.74-2.44-2.38-2.63-2.31-.27-3.29,.96-3.52,3-.27,2.51-1.64,2.54-3.49,1.7-.01-.23-.03-.46-.04-.68,0-1.85,.12-3.72,0-5.56-.15-2.12-1.22-2.98-3.3-1.89-.42,0-.85,.01-1.27,.02-1.31-1.8,.5-5.05-2.77-5.93-.44-.01-.89-.02-1.33-.04-.44-.23-.89-.46-1.33-.68,0,0,0,0,0,0-.06-1.78,1.08-2.48,2.56-3.04,2.27-.86,2.65-2.7,1.7-4.63-.85-1.72-2.73-1.75-4.42-1.7-2.34,.07-4.48-.08-5.45-2.78-.19-.52-.93-1.03-1.51-1.17-1.97-.46-2.31-1.83-2.28-3.54,.03-1.45-.07-2.9,0-4.35,.14-2.51-.86-3.77-3.49-3.63-6.97,.38-5.59-1.18-5.97-6.22-.29-3.78,1.32-7.48,.2-11.23Z"/>
  <path class="uuid-f5f0d29c-3e8e-4d00-8226-d1f28900b09c" d="M127.94,125.97c-.01,2.25-.42,4.5,.1,6.73-.37,2.12-.34,4.24-.08,6.36-.98,2.62-.01,3.79,2.72,3.71,1.22-.03,2.45,.01,3.67,.07,1.8,.09,2.69,.92,2.2,2.82-2.54-1.04-5.08-2.26-7.99,.03,1.58,.86,3.39,1.23,3.73,3.15-.47,.06-.95,.13-1.42,.19l-.02-.02c-.5-1.2-1.66-1.5-2.71-1.73-3.4-.75-4.85-3.25-5.01-6.26-.35-6.65-1.06-13.35,1-19.89,.2-.63,.35-1.35,.75-1.83,2.6-3.08,3.01-6.8,3.24-10.59l.02-.02c4.49-.56,8.13-3.89,8.67-8.26,.3-2.42,1.28-4.1,3.3-5.48,2.73-1.87,4.02-4.88,5.35-7.79,.02-.63,.05-1.25,.07-1.88,.72-.62,.78-1.29,.17-2.01,.03-.41,.06-.82,.09-1.23,1.6-.5,2.42-1.64,2.69-3.24,1.98-.27,3.96-.54,5.94-.81,.41,.18,.83,.35,1.24,.53-.81,1.41-3.01,1.93-2.64,4.1-.46,.67-.93,1.33-1.39,2-2.36-1.62-3.86-1.29-4,1.85-.05,1.27-.65,2.29-1.22,3.36-.96,1.8-.22,2.71,1.68,2.81,.99,.06,1.98,0,2.97,0,.05,.27,.1,.53,.16,.8-.93,.22-1.86,.44-2.79,.67-1.28,.05-1.96,.73-2.06,1.99-.16,.91-.55,1.66-1.44,2.05-.81-.06-1.52,.12-2.02,.82-.18-.01-.32-.09-.43-.22-1.39,.05-3.28-.55-3.82,1.11-.85,2.63-2.51,5.28-1.02,8.24-1.12,1.67,0,4.42-1.9,5.43-2.58,1.36-2.84,3.51-2.85,5.79-.01,2.24-.85,3.5-3.04,3.99-1.34,.3-2.62,.82-1.91,2.68Zm2.94-8.4c-.34-1.03,.85-3.26-.97-3.5-2.17-.29-1.55,2.22-2.09,3.54-.2,.5-.28,1.09-.28,1.64-.01,1.08-.29,2.47,1.26,2.66,1.65,.2,1.98-1.09,2.07-2.4,.04-.55,0-1.11,0-1.93Zm-5.68,8.13c-.19,.02-.37,.05-.56,.07v15.63c.19-.01,.37-.02,.56-.03v-15.66Z"/>
  <path class="uuid-8c86a872-19e5-4360-99f3-3901fc5def92" d="M78.01,166.42c-.02-6.69,.06-13.39-.1-20.08-.07-3.02,1-4.17,4.08-4.09,5.49,.13,5.31,.73,5.31-5.52,0-3.24-.03-6.47,0-9.71,0-1.5-.38-2.65-2.09-2.88-2.9-.39-3.38-2.34-3.35-4.85,.03-2.2,.77-4.92-2.76-5.45-.38-.06-.97-.84-.94-1.24,.27-3.16-1.28-4.35-4.25-4.26-.24,0-.5-.61-.75-.94,2,.03,4,.06,6,.1,0,0,0-.08,0-.08,.26,1.84-1.18,4.53,1.29,5.26,2.98,.88,3.62,2.62,3.31,5.19-.39,3.21,.78,4.88,4.16,4.63,.48,.68,1.09,1.19,1.91,1.4-.24,6.12-.48,12.25-.72,18.37-1.13,.91-2.44,1.29-3.86,1.37-1.56,.02-3.12,.04-4.68,.05-.85-.03-1.29,.4-1.38,1.23-.04,5.57,.12,11.15-.18,16.7-.18,3.47,1.1,4.37,4.39,4.34,14.93-.14,29.85-.07,44.78-.05,1.43,0,2.91-.25,4.25,.52-.03,.26-.05,.53-.08,.79-4.74-.26-9.48-.35-14.22,.04-1.81,0-3.63,0-5.44,.01-9.81-.08-19.61-.15-29.42-.24-1.77-.02-3.58,.18-5.27-.62Z"/>
  <path class="uuid-83d86819-645b-4682-ac21-84f781884288" d="M40.42,65.12c1.12,3.76-.49,7.45-.2,11.23,.38,5.04-1,6.6,5.97,6.22,2.63-.14,3.63,1.12,3.49,3.63-.08,1.44,.02,2.9,0,4.35-.03,1.7,.3,3.07,2.28,3.54,.58,.14,1.32,.65,1.51,1.17,.97,2.7,3.11,2.84,5.45,2.78,1.69-.05,3.57-.02,4.42,1.7,.96,1.94,.58,3.78-1.7,4.63-1.48,.56-2.61,1.26-2.56,3.04-1.67-.68-1.17-1.77-.7-3.01,1.28-3.38,.65-4.48-2.7-5.06-3.23-.55-7.41-5.45-7.24-9.15,.18-3.84-.84-5.68-5.08-5.83-3.73-.14-5.02-2.23-5.07-6.09-.04-3.01-.1-6.02,.71-8.96,.47-1.39,.95-2.79,1.42-4.18Z"/>
  <path class="uuid-15feb99b-daed-4272-bc73-180c85e5bfbd" d="M136.56,145.66c.5-1.9-.4-2.73-2.2-2.82-1.22-.06-2.45-.1-3.67-.07-2.73,.08-3.71-1.09-2.72-3.71,1.76,2.02,4.23,2.3,6.64,2.52,3.03,.28,4.31,1.88,4.29,4.81-.03,5.55-.01,11.1,0,16.65,0,1.5-.12,2.93-1.82,3.55-.14-.04-.27-.09-.4-.14,.08-.7,.39-1.41-.12-2.07,.2-6.24,.4-12.48,.02-18.72Z"/>
  <path class="uuid-83d86819-645b-4682-ac21-84f781884288" d="M64.54,142.35c-1.57,7.18-.52,14.44-.64,21.67-.03,1.66,1.44,1.66,2.71,1.78,2.63,.25,5.36-.66,7.9,.67-3.35,1.24-6.81,.62-10.21,.46-1.87-.09-2.5-1.64-2.51-3.37-.01-5.89-.01-11.79,0-17.68,0-1.87,.66-3.26,2.75-3.53Z"/>
  <path class="uuid-83d86819-645b-4682-ac21-84f781884288" d="M78.01,166.42c1.69,.8,3.49,.6,5.27,.62,9.81,.09,19.61,.16,29.42,.24-.04,.39-.07,.77-.11,1.16-10.45,0-20.89,.02-31.34,0-1.63,0-3.47,.3-4.08-1.92,.28-.03,.56-.06,.84-.1Z"/>
  <path class="uuid-83d86819-645b-4682-ac21-84f781884288" d="M69.14,122.17c1.85,.84,3.22,.81,3.49-1.7,.22-2.03,1.21-3.26,3.52-3,1.64,.19,2.29,1.07,2.38,2.63,.13,2.15-.63,3.44-2.96,3.41-1.19-.01-2.07,.7-2.99,1.32-1.89,.07-3.42-.31-3.43-2.67Z"/>
  <path class="uuid-15feb99b-daed-4272-bc73-180c85e5bfbd" d="M49,159.56c-.01-1.71,.37-3.18,2.49-3.09,1.82,.08,2.94,1.12,2.72,2.98-.19,1.61-.49,3.45-2.72,3.52-2.4,.07-2.46-1.69-2.48-3.41Z"/>
  <path class="uuid-15feb99b-daed-4272-bc73-180c85e5bfbd" d="M49,130.5c-.03-1.54,.11-2.98,2.17-2.94,1.78,.03,3.07,.83,3.05,2.72-.02,1.64-.71,3.08-2.64,3.22-2.12,.15-2.57-1.27-2.57-3Z"/>
  <path class="uuid-15feb99b-daed-4272-bc73-180c85e5bfbd" d="M91.15,177.12c-1.99-.14-3.52-1.1-3.67-3.11-.17-2.2,1.68-2.7,3.4-2.73,1.89-.03,3.65,.56,3.67,2.9,.01,2.14-1.65,2.64-3.4,2.95Zm1.26-3.14c.03-.78-.36-1.24-1.12-1.35-.84-.12-1.59,.07-1.74,1.03-.12,.76,.34,1.24,1.1,1.35,.84,.12,1.53-.09,1.76-1.03Z"/>
  <path class="uuid-15feb99b-daed-4272-bc73-180c85e5bfbd" d="M112.59,168.43c.04-.39,.07-.77,.11-1.16,1.81,0,3.63,0,5.44-.01,0,.33,0,.66,0,.99,0,2-.26,3.92-2.79,4.1-2.93,.21-2.46-2.18-2.76-3.93Z"/>
  <path class="uuid-542a7644-c09a-4fc2-aa08-50850625efc1" d="M132.36,167.23c.03-.26,.05-.53,.08-.79,1.02-.06,2.05-.13,3.08-.19,.38,.07,.77,.14,1.15,.21,.13,.05,.27,.1,.41,.14-.06,.98-.15,1.96-.19,2.95-.06,1.43-.35,2.73-2.15,2.65-1.59-.08-2.24-1.19-2.35-2.66-.05-.76-.02-1.53-.03-2.3Z"/>
  <path class="uuid-15feb99b-daed-4272-bc73-180c85e5bfbd" d="M41.7,93.44c1.72,.19,2.53,1.24,2.53,2.9,0,1.48-.65,2.74-2.27,2.72-1.61-.02-2.21-1.29-2.29-2.76-.07-1.44,.23-2.69,2.03-2.86Z"/>
  <path class="uuid-83d86819-645b-4682-ac21-84f781884288" d="M65.79,114.04c2.09-1.09,3.16-.23,3.3,1.89,.13,1.84,.01,3.71,0,5.56-1.72-.77-1.57-2.49-1.84-3.9-.25-1.32-.77-2.46-1.47-3.56Z"/>
  <path class="uuid-83d86819-645b-4682-ac21-84f781884288" d="M61.75,108.12c3.27,.88,1.46,4.14,2.77,5.93-3.6-.73-2.52-3.64-2.77-5.93Z"/>
  <path class="uuid-83d86819-645b-4682-ac21-84f781884288" d="M72.58,140.94c.53,2.29-.64,2.06-2.1,1.42,.44-.86,1.15-1.32,2.1-1.42Z"/>
  <path class="uuid-83d86819-645b-4682-ac21-84f781884288" d="M59.08,107.4c.44,.23,.89,.46,1.33,.68-.86,.59-1.15,.05-1.33-.68Z"/>
  <path class="uuid-83d86819-645b-4682-ac21-84f781884288" d="M108.11,59.13c4.78,.25,9.62-.71,14.36,.65-.1,6.1-.17,12.2-.31,18.3-.05,2.21,.2,4.09,2.35,5.45,1.48,.94,2.54,2.89,.59,4.04-2.57,1.52-3.07,3.62-3.03,6.16,.03,2.07-.64,3.36-2.91,3.66-1.25,.16-2.45,1.06-2.44,2.41,.04,3.75-2.42,3.6-4.98,3.5-1.22-.05-2.44-.02-3.65-.03-.14-2.43-.27-4.85-.41-7.28,.77-1.04-.46-1.9-.26-2.89,.66-2.26,.78-4.82,4.3-4.75,1.69,.03,1.63-1.78,1.59-3.13-.04-1.39-.86-1.89-2.15-1.98-.98-.07-1.95-.28-2.93-.43,1.59-7.9,.22-15.78-.12-23.67Z"/>
  <path class="uuid-766016df-6c5a-4e75-afbd-a6d746a522e6" d="M153.03,82.6c-.38-2.17,1.82-2.69,2.64-4.1,1.57-4.67,1.06-9.35,.02-14.03-.82-1.59-2.21-2.03-3.89-2.03-6.78,.02-13.56,0-20.35,.01-1.5,0-2.98,.1-3.21,2.08-.22,1.04-.43,2.08-.64,3.13-1.91,1.97-2.09,6.17-.37,8.85l.9,2.78c-.08,1.53,.22,2.76,1.71,3.68,1.46,.91,1.17,2.56,.87,3.98-.33,1.55-1.63,1.63-2.91,1.61,.26-2.81,.72-5.67-2.96-6.84-.81-.26-.76-1.31-.75-2.09,.05-6.14,.13-12.28,.2-18.42,1.66-.03,3.32-.1,4.99-.1,10.62,0,21.23,.03,31.85,.04,.27-.06,.54-.12,.81-.18,.63,6.18,.29,12.37,.35,18.56,.01,1.26-.2,2.43-1.25,3.28-2.39-.45-4.77-.18-7.16,.06-.29-.1-.57-.19-.86-.29Z"/>
  <path class="uuid-8c86a872-19e5-4360-99f3-3901fc5def92" d="M108.11,59.13c.34,7.89,1.71,15.77,.12,23.67-.25-.04-.49-.08-.74-.11-.12-.12-.24-.24-.36-.36,.07-5.9,.19-11.8,.2-17.7,0-3.93-.47-4.36-4.48-4.37-13.48-.02-26.95,0-40.43,0-1.11,0-2.24-.13-3.28,.42-.9,.01-1.81,.02-2.71,.03-.94-.36-1.33,.14-1.53,.96-1.01,6.27-.39,12.57-.35,18.87-.09,.8,.29,1.26,1.04,1.46,.05,.29,.11,.57,.16,.86-2.33,.98-2.88-.63-2.85-2.27,.13-6.91-.72-13.81-.18-20.72,1.82-1.26,3.85-1.49,6.02-1.47,7.91,.06,15.81,0,23.72-.02,2.05,0,4.09,0,6.14,0,5.1,.02,10.19,.05,15.29,.05,1.45,0,2.88,.09,4.22,.7Z"/>
  <path class="uuid-8c86a872-19e5-4360-99f3-3901fc5def92" d="M124.3,61.22c-.07,6.14-.15,12.28-.2,18.42,0,.77-.06,1.83,.75,2.09,3.68,1.17,3.22,4.03,2.96,6.84-1.12,.52-2.57,.46-3.16,1.87-.83,1.3-.51,2.76-.61,4.16-.45,1.49-.91,2.98-1.36,4.47-2.46,.03-4.87,.13-4.63,3.62-.42,.63-.85,1.25-1.27,1.88-2.91,.03-5.81,.06-8.72,.09-.19-.25-.38-.5-.57-.74,.2-.22,.4-.44,.6-.66,1.22,0,2.44-.02,3.65,.03,2.56,.11,5.02,.25,4.98-3.5-.01-1.34,1.19-2.24,2.44-2.41,2.27-.3,2.94-1.59,2.91-3.66-.04-2.54,.46-4.64,3.03-6.16,1.95-1.15,.89-3.1-.59-4.04-2.15-1.36-2.4-3.24-2.35-5.45,.14-6.1,.21-12.2,.31-18.3,1.39-.7,2.73-1.39,4.4-1.38,10.5,.06,21,0,31.5,.08,1.56,.01,3.88-.44,3.57,2.5-.27,.06-.54,.12-.81,.18-.69-1.28-1.9-1.4-3.16-1.4-10.22,0-20.43,0-30.65,0-1.22,0-2.51-.05-3.03,1.46Z"/>
  <path class="uuid-f0995c3e-2bc5-4abc-88ea-c707d0212998" d="M142.49,98.73c.11,.14,.26,.21,.43,.22,.98,.49,1.69,.3,2.02-.82,.89-.39,1.28-1.14,1.44-2.05,1.1-.23,1.77-.92,2.06-1.99,.93-.22,1.86-.44,2.79-.67,.71-.05,1.42-.11,2.13-.16,.14,1.08-.08,1.93-1.2,2.46-4.58,2.14-8,5.17-8.04,10.73,0,.82-.36,1.55-1.06,1.99-4.66,2.95-6.27,7.77-7.77,12.65-1.13,3.67-4.44,3.94-7.34,4.89-.71-1.85,.57-2.38,1.91-2.68,2.19-.49,3.03-1.75,3.04-3.99,.01-2.29,.27-4.44,2.85-5.79,1.91-1,.78-3.75,1.9-5.43,3.48,.33,4.84-1.34,4.62-4.71-.1-1.54,.14-3.1,.23-4.64Z"/>
  <path class="uuid-542a7644-c09a-4fc2-aa08-50850625efc1" d="M101.18,49.66c-2.15,.14-3.19-.79-3.14-2.91,.03-1.57,.31-3.06,2.31-2.87,1.78,.17,3.6,.57,3.63,3.02,.02,1.97-.94,2.85-2.79,2.76Z"/>
  <path class="uuid-542a7644-c09a-4fc2-aa08-50850625efc1" d="M168.63,98.64c-1.79,.07-2.85-.74-2.8-2.76,.05-1.87,1.11-2.56,2.83-2.48,1.82,.09,2.97,.98,3,2.88,.03,1.96-1.29,2.38-3.04,2.35Z"/>
  <path class="uuid-542a7644-c09a-4fc2-aa08-50850625efc1" d="M161.79,139.9c-.01-1.64,.44-2.92,2.41-2.85,1.78,.06,2.16,1.28,2.17,2.76,.01,1.58-.26,2.99-2.24,3.02-1.97,.03-2.35-1.32-2.33-2.93Z"/>
  <path class="uuid-8c86a872-19e5-4360-99f3-3901fc5def92" d="M153.36,93.26c-.71,.05-1.42,.1-2.13,.16-.05-.27-.1-.53-.16-.8,.87-2.63,.56-5.34,.56-8.03,.46-.67,.93-1.33,1.39-2,.29,.1,.57,.19,.85,.28,.02,.54,.05,1.09,.07,1.63l-.6,8.75Z"/>
  <path class="uuid-542a7644-c09a-4fc2-aa08-50850625efc1" d="M146.74,125.42c-.34,1.35-.85,2.63-2.52,2.57-1.61-.05-1.9-1.28-1.88-2.6,.02-1.38,.54-2.47,2.11-2.37,1.38,.09,2.18,.95,2.29,2.4Z"/>
  <path class="uuid-542a7644-c09a-4fc2-aa08-50850625efc1" d="M82.75,56.39c-1.08-1.17-.52-2.13,.56-2.74,1.43-.81,3.08-.95,4.43,.06,1.16,.86,1,2.13,.15,3.27-1.63-.94-3.43-.38-5.14-.59Z"/>
  <path class="uuid-542a7644-c09a-4fc2-aa08-50850625efc1" d="M156.84,106.16c-.22,1.61-1.36,1.88-2.68,1.84-1.22-.04-2.29-.46-2.28-1.88,.01-1.84,1.39-2.06,2.82-2,1.27,.06,2.11,.64,2.14,2.04Z"/>
  <path class="uuid-542a7644-c09a-4fc2-aa08-50850625efc1" d="M164.08,118.35c1.26,.17,1.61,1.05,1.61,2.13,0,1.08-.35,2.09-1.61,2.09-1.26,0-1.61-1.01-1.62-2.09,0-1.08,.37-1.96,1.62-2.13Z"/>
  <path class="uuid-f0995c3e-2bc5-4abc-88ea-c707d0212998" d="M153.96,84.51c-.03-.54-.05-1.09-.07-1.63,2.39-.23,4.77-.51,7.16-.06-1.8,2.92-4.68,1.3-7.08,1.69Z"/>
  <path class="uuid-f0995c3e-2bc5-4abc-88ea-c707d0212998" d="M82.75,56.39c1.71,.2,3.51-.35,5.14,.59,.24,.46,.48,.93,.71,1.39-2.05,0-4.09,0-6.14,0,.09-.66,.19-1.32,.29-1.98Z"/>
  <path class="uuid-766016df-6c5a-4e75-afbd-a6d746a522e6" d="M55.75,82.86c-.05-.29-.11-.57-.16-.86-.06-.69-.36-1.21-1.04-1.46-.03-6.29-.66-12.59,.35-18.87,.67-.07,1.2-.36,1.53-.96,.9-.01,1.81-.02,2.71-.03-.18,1.53-.35,3.07-.53,4.6,0,4.14,0,8.29,.02,12.43,.04,1.53,1.22,1.87,2.35,2.23,1.22,.4,2.11,1.04,2.13,2.46-.77,.18-1.54,.36-2.32,.54-1.69-.03-3.37-.06-5.06-.08Z"/>
  <path class="uuid-766016df-6c5a-4e75-afbd-a6d746a522e6" d="M79.16,107.5c-2-.03-4-.06-6-.1-.1-2.6-.2-5.2-.31-7.8,.08-.53,.17-1.07,.25-1.6,2.09-1.3,3.32,.46,4.81,1.33,.04,.86,.09,1.72,.13,2.57-.75,2.09,1.04,3.67,1.12,5.59Z"/>
  <path class="uuid-8c86a872-19e5-4360-99f3-3901fc5def92" d="M73.1,98.01c-.08,.53-.17,1.07-.25,1.6-2.01-.33-3.88-.79-4.62-3.12-.31-.98-1.3-1.49-2.36-1.6-2.87-.31-3.51-2.24-3.54-4.7-.02-2.51,.42-5.13-1.53-7.24,.77-.18,1.54-.36,2.32-.54,.33,.29,.67,.57,1,.85,.03,2.07,.21,4.16,.05,6.22-.21,2.76,.7,4.2,3.64,3.86,.57,.25,1.14,.5,1.7,.75,.06,1.94,.54,3.49,2.97,3.3l.6,.61Z"/>
  <path class="uuid-f0995c3e-2bc5-4abc-88ea-c707d0212998" d="M127.59,67.66c.22-1.04,.43-2.08,.65-3.13,8.72,.24,17.46-.57,26.16,.51,0,4.31,.01,8.61,.02,12.92-1.98,.27-3.96,.54-5.94,.81-2.22-.02-2.91,1.24-2.69,3.24-.03,.41-.06,.82-.09,1.23-.74,.61-.76,1.29-.17,2.01-.02,.63-.05,1.25-.07,1.88-3.52,2.34-5.41,6.49-9.33,8.43-.49,.24-.9,1.09-.96,1.69-.48,4.97-3.43,8.38-7.04,11.41,0,0-.02,.02-.02,.02-.44,.31-1.22,.57-1.27,.94-.61,4.13-2.88,7.52-4.76,11.09-.35,.66-.55,1.5-.54,2.25,.1,6.76-.55,13.53,.47,20.29,.43,2.87,1.95,4.36,4.57,4.98,1.4,.33,2.84,.5,4.25,.74,0,0,.02,.02,.02,.02-.04,3.75-.08,7.5-.11,11.25-2.38,.66-4.8,.78-7.26,.76-7.89-.04-15.79,.05-23.68-.04-5.1-.06-10.23,.48-15.3-.5l-.04-.04c.03-3.82,.05-7.64,.08-11.46l.02-.03,1.35-.69c.41-.04,.82-.08,1.23-.12,5.98,.34,8.14-1.48,7.94-6.68,0-5.51,.02-11.01,.03-16.52,.39-1.47,.42-3.12-.43-4.21-2.87-3.68-6.29-6.98-6.75-12.02-.04-.42-1.04-.74-1.57-1.14-2.82-2.11-5.02-4.6-5.82-8.2-.63-2.83-1.35-5.69-4.9-6.41-.55-.11-1.22-.74-1.43-1.29-1.22-3.18-3.83-5.71-4.07-9.39-.13-2-1-4.03-3.82-3.54-1.7-.13-3.39-.26-5.09-.39-1.26-4.56-1.09-9.13,.04-13.68,.84-.03,1.67-.05,2.51-.08,.52,.17,1.05,.49,1.57,.49,11.59-.03,23.18-.09,34.76-.15,.42,.06,.83,.11,1.25,.17,.84,3.18,.59,6.42,.53,9.65-.03,1.37-.3,3.03-1.71,3.36-3.3,.77-3.76,3.43-3.96,5.89-.39,4.95-1.33,10.22,2.39,14.38,1.51,1.69,2.42,3.35,2.78,5.49,.28,1.64,.44,3.87,2.15,4.26,4.37,1.01,8.84,2.49,13.34,.39,.37-.01,.73-.03,1.1-.04,5.9,.57,10.5-4.3,10.02-10.62l.24-2.51c4.32-.96,6.42-3.85,6.55-8.07,.12-3.96-.09-7.92-5.07-9.24-.64-.17-1.09-1.05-1.63-1.6-.2-2.93,.54-5.91-.5-8.79Z"/>
  <path class="uuid-766016df-6c5a-4e75-afbd-a6d746a522e6" d="M135.52,166.24c-1.03,.06-2.05,.13-3.08,.19-1.34-.77-2.82-.52-4.25-.52-14.93-.02-29.85-.09-44.78,.05-3.29,.03-4.57-.87-4.39-4.34,.3-5.55,.14-11.13,.18-16.7,.71-.13,1.19-.52,1.38-1.23,1.56-.02,3.12-.04,4.68-.05-.15,.88,1.99,1.96-.13,2.64-2.97,.95-3.35,3.2-3.27,5.84,.08,2.56,.02,5.13,.03,7.7,.01,2.89,1.31,3.89,4.06,2.76,14.25,.1,28.5,.2,42.75,.3,1.42,.19,2.87,.55,3.91-.94,1.48-2.12,1.35-10.77-.23-12.99l-.08-.11c-.33-1.91-2.14-2.28-3.73-3.14,2.91-2.28,5.45-1.07,7.99-.03,.38,6.24,.18,12.48-.02,18.72-.74,.4-.99,1.07-1.03,1.86Z"/>
  <path class="uuid-0f094053-44cf-4567-bae5-34ea91d8af95" d="M130.85,149c-1.42-.24-2.86-.41-4.25-.74-2.62-.62-4.13-2.11-4.57-4.98-1.02-6.76-.37-13.53-.47-20.29-.01-.75,.19-1.58,.54-2.25,1.88-3.57,4.16-6.96,4.76-11.09,.05-.37,.83-.63,1.27-.94-.23,3.79-.64,7.51-3.24,10.59-.41,.48-.55,1.2-.75,1.83-2.06,6.54-1.36,13.25-1,19.89,.16,3.01,1.61,5.51,5.01,6.26,1.05,.23,2.21,.53,2.71,1.73Z"/>
  <path class="uuid-0f094053-44cf-4567-bae5-34ea91d8af95" d="M128.15,108.67c3.6-3.03,6.55-6.44,7.04-11.41,.06-.6,.47-1.45,.96-1.69,3.92-1.94,5.8-6.09,9.33-8.43-1.33,2.91-2.62,5.92-5.35,7.79-2.02,1.38-3,3.07-3.3,5.48-.54,4.37-4.18,7.7-8.67,8.26Z"/>
  <path class="uuid-766016df-6c5a-4e75-afbd-a6d746a522e6" d="M142.49,98.73c-.09,1.55-.32,3.11-.23,4.64,.21,3.38-1.14,5.04-4.62,4.71-1.49-2.96,.17-5.61,1.02-8.24,.54-1.67,2.44-1.06,3.82-1.11Z"/>
  <path class="uuid-766016df-6c5a-4e75-afbd-a6d746a522e6" d="M151.64,84.59c0,2.69,.31,5.4-.56,8.03-.99,0-1.98,.05-2.97,0-1.91-.11-2.64-1.01-1.68-2.81,.57-1.07,1.16-2.09,1.22-3.36,.13-3.14,1.63-3.47,4-1.85Z"/>
  <path class="uuid-0f094053-44cf-4567-bae5-34ea91d8af95" d="M154.42,77.97c0-4.31-.01-8.61-.02-12.92,.43-.19,.86-.39,1.29-.58,1.04,4.68,1.54,9.36-.02,14.03-.41-.18-.83-.35-1.24-.53Z"/>
  <path class="uuid-766016df-6c5a-4e75-afbd-a6d746a522e6" d="M130.88,117.56c0,.82,.03,1.37,0,1.93-.09,1.31-.42,2.61-2.07,2.4-1.55-.19-1.27-1.58-1.26-2.66,0-.55,.08-1.13,.28-1.64,.54-1.32-.08-3.83,2.09-3.54,1.81,.24,.63,2.47,.97,3.5Z"/>
  <path class="uuid-766016df-6c5a-4e75-afbd-a6d746a522e6" d="M125.21,125.69v15.66c-.19,.01-.37,.02-.56,.03v-15.63c.19-.02,.37-.05,.56-.07Z"/>
  <path class="uuid-0f094053-44cf-4567-bae5-34ea91d8af95" d="M130.75,160.27c.04-3.75,.08-7.5,.11-11.25,.47-.06,.95-.13,1.42-.19,0,0,.08,.11,.08,.11-.04,2.34-.03,4.69-.15,7.02-.08,1.59,.59,3.43-1.19,4.59-.09-.09-.18-.19-.28-.28Z"/>
  <path class="uuid-0f094053-44cf-4567-bae5-34ea91d8af95" d="M145.8,82.02c-.22-2,.47-3.26,2.69-3.24-.27,1.6-1.09,2.74-2.69,3.24Z"/>
  <path class="uuid-8c86a872-19e5-4360-99f3-3901fc5def92" d="M148.44,94.09c-.29,1.07-.95,1.76-2.06,1.99,.1-1.27,.78-1.94,2.06-1.99Z"/>
  <path class="uuid-8c86a872-19e5-4360-99f3-3901fc5def92" d="M144.95,98.13c-.33,1.12-1.04,1.31-2.02,.82,.5-.7,1.21-.88,2.02-.82Z"/>
  <path class="uuid-0f094053-44cf-4567-bae5-34ea91d8af95" d="M145.54,85.26c-.6-.73-.57-1.4,.17-2.01,.61,.73,.55,1.4-.17,2.01Z"/>
  <path class="uuid-f5f0d29c-3e8e-4d00-8226-d1f28900b09c" d="M85.94,162.56c-2.75,1.14-4.05,.13-4.06-2.76-.01-2.57,.05-5.13-.03-7.7-.08-2.63,.3-4.88,3.27-5.84,2.12-.68-.02-1.76,.13-2.64,1.42-.08,2.73-.46,3.86-1.37,2.35,.23,3.59-.69,3.55-3.2-.06-3.91-.06-7.83,0-11.74,.04-2.04-.87-3.14-2.84-3.44-.83-.21-1.44-.71-1.91-1.4,.08-2.83-.61-5.55-1.5-8.16-1.19-3.47-3.11-6.43-7.26-6.92,0,0,0,.08,0,.08-.08-1.92-1.88-3.5-1.12-5.59,2.78,2.29,4.27,6.02,8.08,7.18,.42,.13,.95,.84,.93,1.26-.24,6.51,5.96,9.43,8.07,14.61,0,5.51-.02,11.01-.02,16.52-1.69,2.92-3.86,5.23-7.37,5.9-.23,.04-.38,.51-.57,.78-.41,.04-.82,.08-1.23,.12-.87-.6-1.19-.11-1.35,.69,0,0-.02,.03-.02,.03-1.89,2.22-1.94,9.02-.08,11.46,0,0,.04,.04,.04,.04,.48,.69,.95,1.38,1.43,2.07Z"/>
  <path class="uuid-766016df-6c5a-4e75-afbd-a6d746a522e6" d="M79.15,107.42c4.15,.49,6.07,3.45,7.26,6.92,.89,2.61,1.58,5.33,1.5,8.16-3.38,.25-4.55-1.42-4.16-4.63,.31-2.56-.32-4.3-3.31-5.19-2.47-.73-1.04-3.43-1.29-5.26Z"/>
  <path class="uuid-766016df-6c5a-4e75-afbd-a6d746a522e6" d="M89.83,123.9c1.97,.3,2.88,1.4,2.84,3.44-.07,3.91-.06,7.83,0,11.74,.04,2.51-1.2,3.43-3.55,3.2,.24-6.12,.48-12.25,.72-18.37Z"/>
  <path class="uuid-f5f0d29c-3e8e-4d00-8226-d1f28900b09c" d="M80.57,143.69c-.19,.71-.67,1.1-1.38,1.23,.09-.83,.52-1.26,1.38-1.23Z"/>
  <path class="uuid-f5f0d29c-3e8e-4d00-8226-d1f28900b09c" d="M135.52,166.24c.03-.79,.29-1.46,1.03-1.86,.52,.66,.21,1.37,.12,2.07-.38-.07-.77-.14-1.15-.21Z"/>
  <path class="uuid-542a7644-c09a-4fc2-aa08-50850625efc1" d="M92.4,173.99c-.24,.95-.93,1.15-1.76,1.03-.76-.11-1.22-.59-1.1-1.35,.15-.96,.9-1.15,1.74-1.03,.76,.11,1.15,.57,1.12,1.35Z"/>
  <path class="uuid-15feb99b-daed-4272-bc73-180c85e5bfbd" d="M107.49,82.68c.25,.04,.49,.07,.74,.11,.98,.15,1.95,.37,2.93,.43,1.29,.09,2.11,.59,2.15,1.98,.04,1.35,.09,3.16-1.59,3.13-3.52-.06-3.63,2.49-4.3,4.76-1.92-.04-2.64-1.07-2.74-2.94-.15-2.95-.08-5.71,2.82-7.47Z"/>
  <path class="uuid-766016df-6c5a-4e75-afbd-a6d746a522e6" d="M108.09,103.26c-.2,.22-.4,.44-.59,.66-4.29,.3-2.59-3.36-3.28-5.26-.73-2,.79-2.74,2.64-2.75l.82,.07c.14,2.43,.27,4.85,.41,7.28Z"/>
  <path class="uuid-8c86a872-19e5-4360-99f3-3901fc5def92" d="M107.68,95.98c-.27-.02-.55-.05-.83-.07-3.68-2.06-3.51-5.49-3.52-9.06,0-2.84,.87-4.41,3.8-4.52,.12,.12,.24,.24,.36,.36-2.89,1.76-2.97,4.53-2.82,7.47,.1,1.87,.82,2.9,2.74,2.94-.2,.99,1.03,1.85,.26,2.89Z"/>
  <path class="uuid-f5f0d29c-3e8e-4d00-8226-d1f28900b09c" d="M128.25,95.37c-.08,.84-.16,1.68-.24,2.51-2.49,4.34-5.2,8.48-10.03,10.62-.37,.01-.73,.03-1.1,.04-.04-.27-.08-.55-.12-.82,0-1.05,0-2.11,0-3.16,.42-.63,.85-1.25,1.27-1.88,.9,1.06,1.6,2.7,3.42,1.47,1.91-1.29,2.67-2.95,1.21-5.09,.45-1.49,.91-2.98,1.36-4.47,.82,.32,.85,2.64,2.37,1.07,1.88-1.93,.94-4.58-1.77-5.23,.59-1.41,2.04-1.36,3.16-1.87,1.28,.02,2.58-.06,2.91-1.61,.3-1.42,.59-3.07-.87-3.98-1.48-.93-1.79-2.15-1.71-3.68,5.35,2.23,6.39,8.41,2.17,12.88-.89,.94-2.32,1.52-2.05,3.2Z"/>
  <path class="uuid-f5f0d29c-3e8e-4d00-8226-d1f28900b09c" d="M155.69,64.47c-.43,.19-.86,.39-1.29,.58-8.7-1.09-17.44-.28-26.16-.52,.23-1.98,1.71-2.08,3.21-2.08,6.78-.01,13.56,0,20.35-.01,1.68,0,3.07,.43,3.89,2.03Z"/>
  <path class="uuid-f5f0d29c-3e8e-4d00-8226-d1f28900b09c" d="M124.3,61.22c.52-1.51,1.8-1.46,3.03-1.46,10.22-.01,20.43,0,30.65,0,1.26,0,2.46,.13,3.16,1.4-10.62-.02-21.23-.04-31.85-.04-1.66,0-3.32,.06-4.99,.1Z"/>
  <path class="uuid-0f094053-44cf-4567-bae5-34ea91d8af95" d="M128.25,95.37c-.27-1.68,1.16-2.26,2.05-3.2,4.22-4.48,3.18-10.65-2.17-12.88-.3-.93-.6-1.85-.9-2.78,.29-.02,.58-.04,.86-.06,.54,.55,.99,1.43,1.63,1.6,4.98,1.32,5.19,5.28,5.07,9.24-.13,4.22-2.23,7.11-6.55,8.07Z"/>
  <path class="uuid-f5f0d29c-3e8e-4d00-8226-d1f28900b09c" d="M128.1,76.45c-.29,.02-.58,.04-.86,.06-1.72-2.68-1.55-6.89,.37-8.85,1.04,2.88,.3,5.86,.5,8.79Z"/>
  <path class="uuid-f5f0d29c-3e8e-4d00-8226-d1f28900b09c" d="M107.14,82.32c-2.94,.11-3.81,1.68-3.8,4.52,.01,3.57-.16,7.01,3.52,9.06-1.84,0-3.36,.74-2.64,2.75,.69,1.91-1.01,5.56,3.28,5.26,.18,.25,.37,.5,.56,.74,0,.94-.01,1.88-.02,2.82-3.33,.59-4.12-1.98-4.4-4.18-.36-2.84-1.15-5.02-3.7-6.6-1.32-.82-1.98-2.36-1.36-4.08,2.39,1.2,3.53,.49,3.45-2.21-.04-1.32,.04-2.64-.02-3.95-.15-3.27-.86-3.6-3.7-1.77-.03-2.4,.7-4.37,3.01-5.5,1.46-.72,2.03-1.98,2.02-3.56-.02-2.45,.03-4.91-.04-7.36-.04-1.37-.29-2.71-1.93-3.14-.42-.06-.83-.11-1.25-.17-.87-1.42-2.31-1.1-3.6-1.1-9.76-.02-19.51-.02-29.27,0-1.2,0-2.47-.19-3.47,.76-.84,.03-1.67,.05-2.51,.08-.98-.2-1.78,.33-2.65,.6,.17-1.53,.35-3.06,.52-4.6,1.04-.55,2.17-.42,3.28-.42,13.48,0,26.95-.02,40.43,0,4.01,0,4.49,.44,4.48,4.37,0,5.9-.13,11.8-.2,17.7Z"/>
  <path class="uuid-f5f0d29c-3e8e-4d00-8226-d1f28900b09c" d="M56.43,60.71c-.33,.6-.86,.89-1.53,.96,.19-.82,.59-1.32,1.53-.96Z"/>
  <path class="uuid-f5f0d29c-3e8e-4d00-8226-d1f28900b09c" d="M54.55,80.54c.68,.25,.97,.77,1.04,1.46-.74-.2-1.13-.66-1.04-1.46Z"/>
  <path class="uuid-766016df-6c5a-4e75-afbd-a6d746a522e6" d="M108.04,107.48c0-.94,.01-1.88,.02-2.82,2.91-.03,5.81-.06,8.72-.09,0,1.05,0,2.11,0,3.17-2.93,.47-5.84,.39-8.73-.26Z"/>
  <path class="uuid-766016df-6c5a-4e75-afbd-a6d746a522e6" d="M122.68,99.06c1.45,2.14,.7,3.8-1.21,5.09-1.81,1.23-2.52-.41-3.42-1.47-.24-3.49,2.17-3.59,4.63-3.62Z"/>
  <path class="uuid-766016df-6c5a-4e75-afbd-a6d746a522e6" d="M124.65,90.44c2.7,.65,3.65,3.3,1.77,5.23-1.52,1.56-1.55-.76-2.37-1.07,.09-1.4-.22-2.86,.6-4.16Z"/>
  <path class="uuid-f5f0d29c-3e8e-4d00-8226-d1f28900b09c" d="M61.24,78.37c1.7,.13,3.39,.26,5.09,.39,1.7,2.35,3.11,4.78,3.07,7.86,0,.78,.59,1.7,1.15,2.33,2.15,2.4,2.86,6.02,6.49,7.22,1.05,.35,1.53,1.84,.86,3.17-1.48-.88-2.72-2.63-4.81-1.33-.2-.2-.4-.41-.6-.61,.62-2.54,.26-4.22-2.97-3.3-.57-.25-1.14-.5-1.7-.75,2.68-2.33-.14-4.68,.04-7.01,.23-2.92-1.14-3.69-3.73-3.07-.33-.28-.67-.57-1-.85-.02-1.42-.91-2.07-2.13-2.46-1.13-.37-2.32-.7-2.35-2.23,.87,.22,1.73,.44,2.6,.65Z"/>
  <path class="uuid-0f094053-44cf-4567-bae5-34ea91d8af95" d="M61.24,78.37c-.87-.22-1.73-.43-2.6-.65,0-4.15,0-8.29-.01-12.43,.87-.27,1.68-.8,2.65-.6-1.13,4.56-1.3,9.12-.04,13.69Z"/>
  <path class="uuid-0f094053-44cf-4567-bae5-34ea91d8af95" d="M77.9,99.34c.67-1.33,.18-2.83-.86-3.17-3.63-1.2-4.34-4.82-6.49-7.22-.57-.63-1.16-1.55-1.15-2.33,.03-3.08-1.37-5.51-3.07-7.86,2.82-.49,3.68,1.54,3.82,3.54,.25,3.69,2.85,6.21,4.07,9.39,.21,.55,.88,1.18,1.43,1.29,3.55,.72,4.28,3.58,4.9,6.41,.8,3.6,3,6.09,5.82,8.2,.53,.4,1.53,.71,1.57,1.14,.46,5.05,3.88,8.35,6.75,12.02,.86,1.1,.82,2.75,.43,4.21-2.11-5.18-8.31-8.1-8.07-14.6,.02-.42-.52-1.14-.93-1.26-3.82-1.16-5.31-4.89-8.08-7.18-.04-.86-.09-1.72-.13-2.57Z"/>
  <path class="uuid-766016df-6c5a-4e75-afbd-a6d746a522e6" d="M64.13,83.26c2.6-.62,3.96,.15,3.73,3.07-.18,2.33,2.64,4.67-.04,7.01-2.95,.35-3.85-1.1-3.64-3.86,.16-2.06-.02-4.14-.05-6.22Z"/>
  <path class="uuid-766016df-6c5a-4e75-afbd-a6d746a522e6" d="M69.53,94.09c3.23-.91,3.58,.76,2.97,3.3-2.42,.19-2.91-1.36-2.97-3.3Z"/>
  <path class="uuid-0f094053-44cf-4567-bae5-34ea91d8af95" d="M108.04,107.48c2.89,.64,5.81,.73,8.73,.26,.04,.27,.08,.55,.12,.82-4.5,2.1-8.97,.62-13.34-.39-1.71-.4-1.88-2.63-2.15-4.26-.36-2.15-1.27-3.8-2.78-5.49-3.72-4.16-2.78-9.43-2.39-14.38,.19-2.46,.66-5.12,3.96-5.89,1.41-.33,1.69-1.99,1.71-3.36,.06-3.23,.31-6.47-.53-9.65,1.64,.43,1.89,1.78,1.93,3.14,.07,2.45,.02,4.91,.04,7.36,.01,1.59-.56,2.85-2.02,3.56-2.31,1.13-3.04,3.1-3.01,5.5-.54,2.66,.21,5.28,.28,7.93-.63,1.72,.04,3.26,1.36,4.08,2.55,1.58,3.33,3.76,3.7,6.6,.28,2.2,1.07,4.77,4.4,4.18Z"/>
  <path class="uuid-0f094053-44cf-4567-bae5-34ea91d8af95" d="M85.94,162.56c-.48-.69-.95-1.38-1.43-2.07,5.07,.99,10.2,.45,15.3,.51,7.89,.09,15.79,0,23.68,.04,2.46,.01,4.88-.1,7.26-.76,.09,.09,.18,.19,.27,.28-.78,.77-1.55,1.54-2.33,2.31-14.25-.1-28.5-.2-42.75-.3Z"/>
  <path class="uuid-0f094053-44cf-4567-bae5-34ea91d8af95" d="M63.78,64.61c1-.95,2.27-.76,3.47-.76,9.76-.01,19.51-.02,29.27,0,1.29,0,2.73-.32,3.6,1.1-11.59,.05-23.18,.12-34.76,.15-.52,0-1.05-.32-1.57-.49Z"/>
  <path class="uuid-0f094053-44cf-4567-bae5-34ea91d8af95" d="M117.99,108.51c4.83-2.14,7.54-6.28,10.03-10.62,.47,6.32-4.12,11.19-10.03,10.62Z"/>
  <path class="uuid-0f094053-44cf-4567-bae5-34ea91d8af95" d="M87.15,148.16c.19-.27,.34-.74,.57-.78,3.51-.67,5.68-2.98,7.37-5.9,.2,5.21-1.96,7.02-7.94,6.68Z"/>
  <path class="uuid-0f094053-44cf-4567-bae5-34ea91d8af95" d="M84.48,160.45c-1.86-2.44-1.82-9.24,.08-11.46-.03,3.82-.05,7.64-.08,11.46Z"/>
  <path class="uuid-0f094053-44cf-4567-bae5-34ea91d8af95" d="M84.58,148.97c.16-.8,.47-1.29,1.35-.69-.45,.23-.9,.46-1.35,.69Z"/>
  <path class="uuid-f5f0d29c-3e8e-4d00-8226-d1f28900b09c" d="M128.7,162.87c.78-.77,1.55-1.54,2.33-2.31,1.78-1.17,1.11-3,1.19-4.59,.12-2.34,.1-4.68,.15-7.02,1.58,2.22,1.72,10.87,.24,12.99-1.04,1.49-2.48,1.13-3.91,.94Z"/>
  <path class="uuid-766016df-6c5a-4e75-afbd-a6d746a522e6" d="M98.59,92.61c-.07-2.64-.81-5.26-.28-7.93,2.84-1.84,3.56-1.51,3.71,1.77,.06,1.32-.02,2.64,.02,3.95,.08,2.69-1.06,3.4-3.45,2.21Z"/>
</svg>